<?xml version="1.0" encoding="UTF-8"?>
<svg xmlns="http://www.w3.org/2000/svg" xmlns:xlink="http://www.w3.org/1999/xlink" width="393.27pt" height="98.106pt" viewBox="0 0 393.27 98.106">
<defs>
<g>
<g id="glyph-0-0">
<path d="M 5.90625 -1.515625 L 6.53125 -1.515625 L 6.53125 -1.90625 C 6.421875 -1.890625 5.78125 -1.875 5.359375 -1.875 C 5.078125 -1.875 4.796875 -1.875 4.515625 -1.875 C 4.3125 -1.875 3.96875 -1.890625 3.765625 -1.90625 L 3.765625 -1.515625 L 4.875 -1.515625 L 4.875 -0.875 C 4.875 -0.6875 4.875 -0.296875 3.828125 -0.296875 C 3.515625 -0.296875 2.765625 -0.328125 2.21875 -0.796875 C 1.890625 -1.078125 1.640625 -1.5 1.640625 -2.375 C 1.640625 -3.078125 1.796875 -3.578125 2.171875 -3.921875 C 2.625 -4.34375 3.3125 -4.4375 3.734375 -4.4375 C 4.515625 -4.4375 5.234375 -3.96875 5.421875 -3.078125 C 5.4375 -2.921875 5.453125 -2.90625 5.640625 -2.90625 L 5.6875 -2.90625 C 5.890625 -2.90625 5.90625 -2.921875 5.90625 -3.125 L 5.90625 -4.59375 C 5.90625 -4.734375 5.90625 -4.828125 5.75 -4.828125 C 5.671875 -4.828125 5.65625 -4.8125 5.59375 -4.75 L 5.125 -4.34375 C 4.421875 -4.828125 3.796875 -4.828125 3.578125 -4.828125 C 1.578125 -4.828125 0.515625 -3.703125 0.515625 -2.375 C 0.515625 -1.25 1.3125 0.078125 3.625 0.078125 C 4 0.078125 4.8125 0.0625 5.15625 -0.296875 C 5.3125 -0.171875 5.734375 0 5.78125 0 C 5.90625 0 5.90625 -0.125 5.90625 -0.21875 Z M 5.90625 -1.515625 "/>
</g>
<g id="glyph-0-1">
<path d="M 3.5625 -1.4375 C 3.703125 -1.4375 3.8125 -1.4375 3.8125 -1.640625 C 3.8125 -1.84375 3.75 -2.359375 3.421875 -2.703125 C 3.046875 -3.078125 2.546875 -3.125 2.15625 -3.125 C 0.890625 -3.125 0.28125 -2.375 0.28125 -1.546875 C 0.28125 -0.734375 0.90625 0.046875 2.28125 0.046875 C 2.53125 0.046875 2.921875 0.015625 3.28125 -0.171875 C 3.6875 -0.390625 3.8125 -0.71875 3.8125 -0.78125 C 3.8125 -0.9375 3.65625 -0.9375 3.578125 -0.9375 C 3.453125 -0.9375 3.421875 -0.9375 3.375 -0.828125 C 3.125 -0.3125 2.5 -0.3125 2.375 -0.3125 C 1.28125 -0.3125 1.25 -1.125 1.234375 -1.4375 Z M 1.234375 -1.734375 C 1.25 -2 1.28125 -2.8125 2.171875 -2.8125 C 3.0625 -2.8125 3.109375 -2.03125 3.125 -1.734375 Z M 1.234375 -1.734375 "/>
</g>
<g id="glyph-0-2">
<path d="M 4.234375 -2.078125 C 4.234375 -2.921875 3.6875 -3.109375 3.046875 -3.109375 C 2.203125 -3.109375 1.828125 -2.609375 1.6875 -2.390625 L 1.6875 -3.109375 L 0.4375 -3.046875 L 0.4375 -2.671875 C 0.84375 -2.671875 0.90625 -2.671875 0.90625 -2.390625 L 0.90625 -0.390625 L 0.4375 -0.390625 L 0.4375 0 C 0.453125 0 1.015625 -0.03125 1.34375 -0.03125 C 1.671875 -0.03125 2.234375 0 2.25 0 L 2.25 -0.390625 L 1.78125 -0.390625 L 1.78125 -1.71875 C 1.78125 -2.515625 2.5 -2.796875 2.921875 -2.796875 C 3.21875 -2.796875 3.34375 -2.625 3.34375 -2.140625 L 3.34375 -0.390625 L 2.890625 -0.390625 L 2.890625 0 C 2.890625 0 3.453125 -0.03125 3.78125 -0.03125 C 4.125 -0.03125 4.6875 0 4.6875 0 L 4.6875 -0.390625 L 4.234375 -0.390625 Z M 4.234375 -2.078125 "/>
</g>
<g id="glyph-0-3">
<path d="M 1.671875 -1.453125 C 1.671875 -2.078125 1.953125 -2.75 2.578125 -2.796875 C 2.5625 -2.78125 2.484375 -2.671875 2.484375 -2.5 C 2.484375 -2.21875 2.671875 -2.03125 2.953125 -2.03125 C 3.21875 -2.03125 3.421875 -2.21875 3.421875 -2.5 C 3.421875 -2.875 3.03125 -3.109375 2.609375 -3.109375 C 2.109375 -3.109375 1.78125 -2.78125 1.59375 -2.34375 L 1.578125 -2.34375 L 1.578125 -3.109375 L 0.375 -3.046875 L 0.375 -2.671875 C 0.78125 -2.671875 0.84375 -2.671875 0.84375 -2.390625 L 0.84375 -0.390625 L 0.375 -0.390625 L 0.375 0 C 0.40625 0 0.9375 -0.03125 1.265625 -0.03125 C 1.53125 -0.03125 2.203125 0 2.25 0 L 2.25 -0.390625 L 1.671875 -0.390625 Z M 1.671875 -1.453125 "/>
</g>
<g id="glyph-0-4">
<path d="M 3.640625 -2.03125 C 3.640625 -2.609375 3.1875 -3.125 1.953125 -3.125 C 1.546875 -3.125 0.578125 -3.125 0.578125 -2.4375 C 0.578125 -2.140625 0.796875 -1.96875 1.0625 -1.96875 C 1.359375 -1.96875 1.546875 -2.171875 1.546875 -2.4375 C 1.546875 -2.59375 1.484375 -2.6875 1.453125 -2.71875 C 1.4375 -2.734375 1.4375 -2.75 1.4375 -2.765625 C 1.4375 -2.796875 1.875 -2.8125 1.921875 -2.8125 C 2.40625 -2.8125 2.765625 -2.625 2.765625 -2.03125 L 2.765625 -1.84375 C 2.4375 -1.84375 0.28125 -1.8125 0.28125 -0.796875 C 0.28125 -0.15625 1.046875 0.046875 1.734375 0.046875 C 2.46875 0.046875 2.796875 -0.296875 2.90625 -0.46875 C 2.90625 -0.171875 3.09375 0 3.65625 0 L 4.0625 0 C 4.203125 0 4.3125 0 4.3125 -0.1875 C 4.3125 -0.390625 4.203125 -0.390625 4.0625 -0.390625 C 3.640625 -0.390625 3.640625 -0.4375 3.640625 -0.59375 Z M 2.765625 -0.953125 C 2.765625 -0.796875 2.765625 -0.59375 2.5 -0.4375 C 2.234375 -0.28125 1.90625 -0.28125 1.875 -0.28125 C 1.484375 -0.28125 1.15625 -0.484375 1.15625 -0.796875 C 1.15625 -1.375 2.078125 -1.546875 2.765625 -1.578125 Z M 2.765625 -0.953125 "/>
</g>
<g id="glyph-0-5">
<path d="M 1.75 -4.796875 L 0.46875 -4.734375 L 0.46875 -4.34375 C 0.875 -4.34375 0.921875 -4.34375 0.921875 -4.078125 L 0.921875 -0.390625 L 0.46875 -0.390625 L 0.46875 0 C 0.484375 0 1.015625 -0.03125 1.34375 -0.03125 C 1.671875 -0.03125 2.203125 0 2.21875 0 L 2.21875 -0.390625 L 1.75 -0.390625 Z M 1.75 -4.796875 "/>
</g>
<g id="glyph-0-6">
<path d="M 1.8125 -4.234375 C 1.8125 -4.5625 1.546875 -4.796875 1.25 -4.796875 C 0.921875 -4.796875 0.6875 -4.53125 0.6875 -4.234375 C 0.6875 -3.90625 0.953125 -3.671875 1.25 -3.671875 C 1.578125 -3.671875 1.8125 -3.9375 1.8125 -4.234375 Z M 0.484375 -3.046875 L 0.484375 -2.671875 C 0.875 -2.671875 0.921875 -2.671875 0.921875 -2.390625 L 0.921875 -0.390625 L 0.46875 -0.390625 L 0.46875 0 C 0.46875 0 1.015625 -0.03125 1.328125 -0.03125 C 1.609375 -0.03125 1.890625 -0.015625 2.171875 0 L 2.171875 -0.390625 L 1.75 -0.390625 L 1.75 -3.109375 Z M 0.484375 -3.046875 "/>
</g>
<g id="glyph-0-7">
<path d="M 2.984375 -2.90625 C 2.984375 -3.046875 2.984375 -3.125 2.8125 -3.125 C 2.765625 -3.125 2.75 -3.125 2.640625 -3.078125 C 2.625 -3.0625 2.53125 -3.03125 2.5 -3.03125 C 2.5 -3.03125 2.484375 -3.03125 2.453125 -3.03125 C 2.171875 -3.125 1.890625 -3.125 1.734375 -3.125 C 1.546875 -3.125 1.125 -3.125 0.78125 -2.9375 C 0.375 -2.71875 0.328125 -2.359375 0.328125 -2.203125 C 0.328125 -1.453125 1.234375 -1.3125 1.71875 -1.25 C 2.140625 -1.1875 2.640625 -1.109375 2.640625 -0.75 C 2.640625 -0.28125 1.96875 -0.28125 1.796875 -0.28125 C 1.140625 -0.28125 0.890625 -0.578125 0.765625 -0.953125 C 0.71875 -1.0625 0.71875 -1.078125 0.546875 -1.078125 C 0.34375 -1.078125 0.328125 -1.0625 0.328125 -0.859375 L 0.328125 -0.171875 C 0.328125 -0.046875 0.328125 0.046875 0.484375 0.046875 C 0.546875 0.046875 0.5625 0.046875 0.703125 -0.046875 C 0.75 -0.0625 0.859375 -0.125 0.890625 -0.15625 C 1.25 0.046875 1.625 0.046875 1.78125 0.046875 C 2.015625 0.046875 3.203125 0.046875 3.203125 -0.984375 C 3.203125 -1.296875 3.03125 -1.515625 2.875 -1.65625 C 2.5625 -1.921875 2.265625 -1.96875 1.6875 -2.0625 C 1.296875 -2.125 0.890625 -2.1875 0.890625 -2.453125 C 0.890625 -2.84375 1.578125 -2.84375 1.71875 -2.84375 C 2.5 -2.84375 2.53125 -2.53125 2.546875 -2.359375 C 2.5625 -2.21875 2.609375 -2.203125 2.765625 -2.203125 C 2.96875 -2.203125 2.984375 -2.234375 2.984375 -2.4375 Z M 2.984375 -2.90625 "/>
</g>
<g id="glyph-0-8">
<path d="M 1.6875 -2.671875 L 2.8125 -2.671875 L 2.8125 -3.0625 L 1.6875 -3.0625 L 1.6875 -4.390625 L 1.25 -4.390625 C 1.25 -3.75 0.921875 -3.015625 0.1875 -3 L 0.1875 -2.671875 L 0.8125 -2.671875 L 0.8125 -0.828125 C 0.8125 -0.15625 1.375 0.046875 1.96875 0.046875 C 2.515625 0.046875 2.96875 -0.28125 2.96875 -0.828125 L 2.96875 -1.1875 L 2.53125 -1.1875 L 2.53125 -0.859375 C 2.53125 -0.390625 2.234375 -0.3125 2.09375 -0.3125 C 1.703125 -0.3125 1.6875 -0.65625 1.6875 -0.828125 Z M 1.6875 -2.671875 "/>
</g>
<g id="glyph-0-9">
<path d="M 2.96875 1.59375 C 2.96875 1.546875 2.9375 1.515625 2.828125 1.421875 C 2.125 0.828125 1.609375 -0.265625 1.609375 -1.734375 C 1.609375 -2.6875 1.84375 -4.046875 2.890625 -4.9375 C 2.921875 -4.96875 2.96875 -5 2.96875 -5.0625 C 2.96875 -5.1875 2.828125 -5.1875 2.796875 -5.1875 C 2.65625 -5.1875 2.265625 -4.859375 2.125 -4.71875 C 1.453125 -4.0625 0.84375 -3.125 0.84375 -1.734375 C 0.84375 -0.578125 1.265625 0.421875 2.125 1.265625 C 2.265625 1.40625 2.65625 1.71875 2.796875 1.71875 C 2.828125 1.71875 2.96875 1.71875 2.96875 1.59375 Z M 2.96875 1.59375 "/>
</g>
<g id="glyph-0-10">
<path d="M 2.640625 -1.734375 C 2.640625 -2.890625 2.203125 -3.890625 1.359375 -4.71875 C 1.21875 -4.859375 0.828125 -5.1875 0.671875 -5.1875 C 0.65625 -5.1875 0.515625 -5.1875 0.515625 -5.0625 C 0.515625 -5 0.53125 -4.984375 0.65625 -4.890625 C 1.359375 -4.28125 1.875 -3.203125 1.875 -1.734375 C 1.875 -0.78125 1.640625 0.59375 0.59375 1.484375 C 0.546875 1.5 0.515625 1.53125 0.515625 1.59375 C 0.515625 1.71875 0.65625 1.71875 0.671875 1.71875 C 0.828125 1.71875 1.21875 1.40625 1.359375 1.265625 C 2.03125 0.59375 2.640625 -0.34375 2.640625 -1.734375 Z M 2.640625 -1.734375 "/>
</g>
<g id="glyph-0-11">
<path d="M 1.96875 -3.078125 C 1.46875 -3.171875 1.21875 -3.46875 1.21875 -3.765625 C 1.21875 -4.046875 1.421875 -4.46875 2.234375 -4.46875 C 2.828125 -4.46875 3.578125 -4.265625 3.734375 -3.359375 C 3.765625 -3.1875 3.765625 -3.15625 3.96875 -3.15625 C 4.171875 -3.15625 4.1875 -3.1875 4.1875 -3.390625 L 4.1875 -4.59375 C 4.1875 -4.734375 4.1875 -4.828125 4.03125 -4.828125 C 3.953125 -4.828125 3.9375 -4.828125 3.84375 -4.734375 L 3.609375 -4.515625 C 3.5625 -4.453125 3.546875 -4.453125 3.546875 -4.453125 C 3.53125 -4.453125 3.53125 -4.453125 3.484375 -4.484375 C 3.09375 -4.75 2.625 -4.828125 2.234375 -4.828125 C 0.984375 -4.828125 0.515625 -4.078125 0.515625 -3.4375 C 0.515625 -3.0625 0.671875 -2.765625 0.890625 -2.5625 C 1.25 -2.1875 1.59375 -2.109375 2.453125 -1.953125 C 2.65625 -1.90625 2.984375 -1.84375 3.046875 -1.84375 C 3.390625 -1.75 3.734375 -1.484375 3.734375 -1.078125 C 3.734375 -1.015625 3.734375 -0.296875 2.6875 -0.296875 C 2.46875 -0.296875 1.9375 -0.328125 1.515625 -0.53125 C 1.03125 -0.765625 0.96875 -1.15625 0.953125 -1.390625 C 0.953125 -1.53125 0.9375 -1.578125 0.734375 -1.578125 C 0.53125 -1.578125 0.515625 -1.546875 0.515625 -1.359375 L 0.515625 -0.140625 C 0.515625 0 0.515625 0.078125 0.671875 0.078125 C 0.765625 0.078125 0.78125 0.078125 0.828125 0.03125 C 0.890625 -0.03125 1.078125 -0.21875 1.140625 -0.28125 C 1.625 0.015625 2.21875 0.078125 2.6875 0.078125 C 4 0.078125 4.4375 -0.734375 4.4375 -1.40625 C 4.4375 -2.203125 3.765625 -2.734375 3.109375 -2.859375 Z M 1.96875 -3.078125 "/>
</g>
<g id="glyph-0-12">
<path d="M 2.1875 0.953125 L 1.71875 0.953125 L 1.71875 -0.25 C 1.890625 -0.140625 2.234375 0.046875 2.71875 0.046875 C 3.90625 0.046875 4.625 -0.625 4.625 -1.546875 C 4.625 -2.375 4.03125 -3.109375 2.859375 -3.109375 C 2.5 -3.109375 2.078125 -3.03125 1.671875 -2.796875 L 1.671875 -3.109375 L 0.375 -3.046875 L 0.375 -2.671875 C 0.5 -2.671875 0.640625 -2.671875 0.71875 -2.65625 C 0.84375 -2.625 0.84375 -2.5625 0.84375 -2.421875 L 0.84375 0.953125 L 0.375 0.953125 L 0.375 1.34375 C 0.390625 1.34375 0.953125 1.3125 1.28125 1.3125 C 1.609375 1.3125 2.171875 1.34375 2.1875 1.34375 Z M 1.71875 -2.203125 C 1.71875 -2.34375 1.734375 -2.34375 1.828125 -2.4375 C 2.15625 -2.734375 2.5625 -2.75 2.703125 -2.75 C 3.296875 -2.75 3.671875 -2.28125 3.671875 -1.546875 C 3.671875 -0.640625 3.15625 -0.28125 2.625 -0.28125 C 2.09375 -0.28125 1.796875 -0.65625 1.71875 -0.765625 Z M 1.71875 -2.203125 "/>
</g>
<g id="glyph-0-13">
<path d="M 3.6875 -0.78125 C 3.6875 -0.90625 3.578125 -0.90625 3.46875 -0.90625 C 3.3125 -0.90625 3.296875 -0.90625 3.25 -0.796875 C 3.15625 -0.578125 2.921875 -0.3125 2.390625 -0.3125 C 1.28125 -0.3125 1.28125 -1.28125 1.28125 -1.5625 C 1.28125 -2.078125 1.375 -2.78125 2.296875 -2.78125 C 2.328125 -2.78125 2.734375 -2.765625 2.734375 -2.734375 C 2.734375 -2.734375 2.71875 -2.71875 2.71875 -2.71875 C 2.703125 -2.6875 2.640625 -2.59375 2.640625 -2.4375 C 2.640625 -2.15625 2.84375 -1.96875 3.109375 -1.96875 C 3.390625 -1.96875 3.59375 -2.15625 3.59375 -2.4375 C 3.59375 -3.109375 2.671875 -3.125 2.265625 -3.125 C 0.734375 -3.125 0.328125 -2.171875 0.328125 -1.53125 C 0.328125 -0.71875 0.921875 0.046875 2.234375 0.046875 C 2.5625 0.046875 2.921875 -0.015625 3.203125 -0.171875 C 3.59375 -0.40625 3.6875 -0.75 3.6875 -0.78125 Z M 3.6875 -0.78125 "/>
</g>
<g id="glyph-0-14">
<path d="M 4.1875 -0.859375 L 2.375 -4.546875 C 2.265625 -4.734375 2.171875 -4.734375 2.03125 -4.734375 L 0.4375 -4.734375 L 0.4375 -4.34375 L 1.171875 -4.34375 L 1.171875 -0.5625 C 1.171875 -0.453125 1.171875 -0.4375 1.15625 -0.421875 C 1.09375 -0.390625 0.75 -0.390625 0.65625 -0.390625 L 0.4375 -0.390625 L 0.4375 0 C 0.53125 0 1.15625 -0.03125 1.421875 -0.03125 C 1.671875 -0.03125 2.34375 0 2.390625 0 L 2.390625 -0.390625 L 2.171875 -0.390625 C 2.0625 -0.390625 1.921875 -0.390625 1.828125 -0.40625 C 1.671875 -0.421875 1.65625 -0.421875 1.65625 -0.5625 L 1.65625 -4.234375 L 1.671875 -4.234375 L 3.671875 -0.1875 C 3.71875 -0.09375 3.78125 0 3.953125 0 C 4.015625 0 4.15625 0 4.25 -0.1875 L 6.296875 -4.328125 L 6.3125 -4.328125 L 6.3125 -0.390625 L 5.5625 -0.390625 L 5.5625 0 C 5.6875 0 6.453125 -0.03125 6.765625 -0.03125 C 7.140625 -0.03125 7.859375 0 7.953125 0 L 7.953125 -0.390625 L 7.203125 -0.390625 L 7.203125 -4.34375 L 7.953125 -4.34375 L 7.953125 -4.734375 L 6.359375 -4.734375 C 6.234375 -4.734375 6.109375 -4.734375 6.015625 -4.546875 Z M 4.1875 -0.859375 "/>
</g>
<g id="glyph-0-15">
<path d="M 1.8125 -0.5625 C 1.8125 -0.890625 1.546875 -1.125 1.25 -1.125 C 0.921875 -1.125 0.6875 -0.859375 0.6875 -0.5625 C 0.6875 -0.234375 0.953125 0 1.25 0 C 1.578125 0 1.8125 -0.265625 1.8125 -0.5625 Z M 1.8125 -0.5625 "/>
</g>
<g id="glyph-0-16">
<path d="M 2.46875 -1.921875 L 0.125 -1.921875 L 0.125 -1.15625 L 2.46875 -1.15625 Z M 2.46875 -1.921875 "/>
</g>
<g id="glyph-0-17">
<path d="M 5.90625 -4.59375 C 5.90625 -4.734375 5.90625 -4.828125 5.75 -4.828125 C 5.65625 -4.828125 5.65625 -4.8125 5.578125 -4.75 L 5.125 -4.34375 C 4.4375 -4.828125 3.78125 -4.828125 3.578125 -4.828125 C 1.5625 -4.828125 0.515625 -3.6875 0.515625 -2.375 C 0.515625 -1.0625 1.546875 0.078125 3.578125 0.078125 C 5 0.078125 5.90625 -0.71875 5.90625 -1.578125 C 5.90625 -1.75 5.828125 -1.75 5.6875 -1.75 C 5.59375 -1.75 5.484375 -1.75 5.46875 -1.625 C 5.40625 -0.578125 4.34375 -0.296875 3.75 -0.296875 C 3.1875 -0.296875 2.546875 -0.4375 2.140625 -0.84375 C 1.734375 -1.25 1.640625 -1.828125 1.640625 -2.375 C 1.640625 -3.03125 1.78125 -3.625 2.25 -3.984375 C 2.734375 -4.359375 3.3125 -4.4375 3.734375 -4.4375 C 4.625 -4.4375 5.265625 -3.828125 5.40625 -3.109375 C 5.4375 -2.921875 5.4375 -2.90625 5.640625 -2.90625 L 5.6875 -2.90625 C 5.890625 -2.90625 5.90625 -2.921875 5.90625 -3.125 Z M 5.90625 -4.59375 "/>
</g>
<g id="glyph-1-0">
<path d="M 1.296875 -2.328125 L 2.265625 -2.328125 L 2.265625 -2.546875 L 1.296875 -2.546875 L 1.296875 -3.640625 L 1.078125 -3.640625 C 1.0625 -3.109375 0.8125 -2.53125 0.21875 -2.515625 L 0.21875 -2.328125 L 0.796875 -2.328125 L 0.796875 -0.734375 C 0.796875 -0.125 1.265625 0.0625 1.671875 0.0625 C 2.078125 0.0625 2.375 -0.265625 2.375 -0.75 L 2.375 -1.078125 L 2.15625 -1.078125 L 2.15625 -0.765625 C 2.15625 -0.34375 1.9375 -0.140625 1.71875 -0.140625 C 1.296875 -0.140625 1.296875 -0.625 1.296875 -0.734375 Z M 1.296875 -2.328125 "/>
</g>
<g id="glyph-1-1">
<path d="M 1.28125 -1.328125 C 1.28125 -1.875 1.5625 -2.40625 2.09375 -2.421875 C 2.03125 -2.375 2.015625 -2.296875 2.015625 -2.21875 C 2.015625 -2.0625 2.125 -1.9375 2.296875 -1.9375 C 2.453125 -1.9375 2.5625 -2.0625 2.5625 -2.21875 C 2.5625 -2.453125 2.34375 -2.609375 2.078125 -2.609375 C 1.734375 -2.609375 1.421875 -2.390625 1.25 -2 L 1.234375 -2 L 1.234375 -2.609375 L 0.34375 -2.546875 L 0.34375 -2.3125 C 0.765625 -2.3125 0.8125 -2.28125 0.8125 -1.984375 L 0.8125 -0.484375 C 0.8125 -0.234375 0.75 -0.234375 0.34375 -0.234375 L 0.34375 0 C 0.484375 -0.015625 0.9375 -0.03125 1.0625 -0.03125 C 1.375 -0.03125 1.78125 0 1.859375 0 L 1.859375 -0.234375 L 1.734375 -0.234375 C 1.28125 -0.234375 1.28125 -0.296875 1.28125 -0.484375 Z M 1.28125 -1.328125 "/>
</g>
<g id="glyph-1-2">
<path d="M 2.8125 -1.765625 C 2.8125 -2.3125 2.25 -2.640625 1.59375 -2.640625 C 1.296875 -2.640625 0.609375 -2.609375 0.609375 -2.109375 C 0.609375 -1.953125 0.703125 -1.828125 0.890625 -1.828125 C 1.0625 -1.828125 1.171875 -1.953125 1.171875 -2.109375 C 1.171875 -2.21875 1.125 -2.3125 1.03125 -2.359375 C 1.21875 -2.453125 1.515625 -2.453125 1.578125 -2.453125 C 2 -2.453125 2.328125 -2.203125 2.328125 -1.75 L 2.328125 -1.59375 C 2.046875 -1.59375 1.578125 -1.578125 1.140625 -1.421875 C 0.75 -1.28125 0.375 -1.015625 0.375 -0.625 C 0.375 -0.09375 1 0.0625 1.46875 0.0625 C 1.96875 0.0625 2.265625 -0.1875 2.390625 -0.421875 C 2.4375 -0.109375 2.625 0.03125 2.84375 0.03125 C 2.859375 0.03125 3.5 0.03125 3.5 -0.53125 L 3.5 -0.859375 L 3.28125 -0.859375 L 3.28125 -0.546875 C 3.28125 -0.484375 3.28125 -0.21875 3.046875 -0.21875 C 2.8125 -0.21875 2.8125 -0.484375 2.8125 -0.546875 Z M 2.328125 -0.84375 C 2.328125 -0.21875 1.71875 -0.125 1.515625 -0.125 C 1.203125 -0.125 0.90625 -0.328125 0.90625 -0.625 C 0.90625 -0.953125 1.21875 -1.390625 2.328125 -1.421875 Z M 2.328125 -0.84375 "/>
</g>
<g id="glyph-1-3">
<path d="M 1.34375 -3.640625 C 1.34375 -3.828125 1.203125 -4 0.984375 -4 C 0.8125 -4 0.640625 -3.859375 0.640625 -3.640625 C 0.640625 -3.4375 0.8125 -3.296875 0.984375 -3.296875 C 1.203125 -3.296875 1.34375 -3.46875 1.34375 -3.640625 Z M 0.40625 -2.546875 L 0.40625 -2.3125 C 0.796875 -2.3125 0.84375 -2.28125 0.84375 -1.984375 L 0.84375 -0.484375 C 0.84375 -0.234375 0.78125 -0.234375 0.375 -0.234375 L 0.375 0 C 0.546875 -0.015625 1.015625 -0.03125 1.078125 -0.03125 C 1.125 -0.03125 1.578125 -0.015625 1.734375 0 L 1.734375 -0.234375 C 1.375 -0.234375 1.3125 -0.234375 1.3125 -0.484375 L 1.3125 -2.609375 Z M 0.40625 -2.546875 "/>
</g>
<g id="glyph-1-4">
<path d="M 3.234375 -1.78125 C 3.234375 -2.375 2.90625 -2.609375 2.3125 -2.609375 C 1.78125 -2.609375 1.46875 -2.34375 1.296875 -2.0625 L 1.296875 -2.609375 L 0.375 -2.546875 L 0.375 -2.3125 C 0.78125 -2.3125 0.84375 -2.28125 0.84375 -1.984375 L 0.84375 -0.484375 C 0.84375 -0.234375 0.78125 -0.234375 0.375 -0.234375 L 0.375 0 C 0.421875 0 0.8125 -0.03125 1.078125 -0.03125 C 1.34375 -0.03125 1.734375 0 1.796875 0 L 1.796875 -0.234375 C 1.390625 -0.234375 1.328125 -0.234375 1.328125 -0.484375 L 1.328125 -1.53125 C 1.328125 -2.171875 1.890625 -2.421875 2.25 -2.421875 C 2.65625 -2.421875 2.75 -2.171875 2.75 -1.8125 L 2.75 -0.484375 C 2.75 -0.234375 2.6875 -0.234375 2.28125 -0.234375 L 2.28125 0 C 2.328125 0 2.71875 -0.03125 2.984375 -0.03125 C 3.25 -0.03125 3.640625 0 3.703125 0 L 3.703125 -0.234375 C 3.296875 -0.234375 3.234375 -0.234375 3.234375 -0.484375 Z M 3.234375 -1.78125 "/>
</g>
<g id="glyph-1-5">
<path d="M 2.390625 -2.46875 C 2.390625 -2.578125 2.390625 -2.640625 2.296875 -2.640625 C 2.28125 -2.640625 2.265625 -2.640625 2.171875 -2.5625 C 2.15625 -2.5625 2.15625 -2.546875 2.0625 -2.484375 C 1.84375 -2.640625 1.546875 -2.640625 1.421875 -2.640625 C 0.484375 -2.640625 0.3125 -2.171875 0.3125 -1.90625 C 0.3125 -1.328125 1.015625 -1.21875 1.46875 -1.140625 C 1.734375 -1.09375 2.25 -1.015625 2.25 -0.625 C 2.25 -0.390625 2.0625 -0.125 1.46875 -0.125 C 0.890625 -0.125 0.65625 -0.46875 0.53125 -0.90625 C 0.515625 -0.953125 0.515625 -1 0.421875 -1 C 0.3125 -1 0.3125 -0.9375 0.3125 -0.828125 L 0.3125 -0.109375 C 0.3125 0 0.3125 0.0625 0.40625 0.0625 C 0.4375 0.0625 0.453125 0.046875 0.5625 -0.046875 L 0.703125 -0.203125 C 0.984375 0.0625 1.34375 0.0625 1.46875 0.0625 C 2.34375 0.0625 2.5625 -0.421875 2.5625 -0.765625 C 2.5625 -1 2.453125 -1.171875 2.328125 -1.296875 C 2.078125 -1.515625 1.828125 -1.546875 1.484375 -1.609375 C 1.03125 -1.6875 0.640625 -1.75 0.640625 -2.0625 C 0.640625 -2.234375 0.796875 -2.46875 1.421875 -2.46875 C 1.828125 -2.46875 2.140625 -2.3125 2.171875 -1.890625 C 2.1875 -1.8125 2.1875 -1.765625 2.28125 -1.765625 C 2.390625 -1.765625 2.390625 -1.828125 2.390625 -1.9375 Z M 2.390625 -2.46875 "/>
</g>
<g id="glyph-1-6">
<path d="M 3.328125 -1.265625 C 3.328125 -2 2.671875 -2.640625 1.8125 -2.640625 C 0.9375 -2.640625 0.28125 -2 0.28125 -1.265625 C 0.28125 -0.53125 0.953125 0.0625 1.8125 0.0625 C 2.65625 0.0625 3.328125 -0.53125 3.328125 -1.265625 Z M 1.8125 -0.140625 C 0.84375 -0.140625 0.84375 -1.03125 0.84375 -1.3125 C 0.84375 -1.5 0.84375 -1.90625 1.0625 -2.15625 C 1.265625 -2.359375 1.515625 -2.453125 1.8125 -2.453125 C 2.09375 -2.453125 2.359375 -2.359375 2.546875 -2.140625 C 2.765625 -1.90625 2.765625 -1.5 2.765625 -1.3125 C 2.765625 -1.03125 2.765625 -0.140625 1.8125 -0.140625 Z M 1.8125 -0.140625 "/>
</g>
<g id="glyph-1-7">
<path d="M 1.3125 -4.109375 L 0.375 -4.046875 L 0.375 -3.8125 C 0.796875 -3.8125 0.84375 -3.765625 0.84375 -3.484375 L 0.84375 -0.484375 C 0.84375 -0.234375 0.78125 -0.234375 0.375 -0.234375 L 0.375 0 C 0.5625 -0.015625 1.03125 -0.03125 1.078125 -0.03125 C 1.3125 -0.03125 1.546875 -0.015625 1.78125 0 L 1.78125 -0.234375 C 1.375 -0.234375 1.3125 -0.234375 1.3125 -0.484375 Z M 1.3125 -4.109375 "/>
</g>
<g id="glyph-1-8">
<path d="M 3.234375 -1.78125 C 3.234375 -2.375 2.90625 -2.609375 2.3125 -2.609375 C 1.6875 -2.609375 1.390625 -2.21875 1.3125 -2.078125 L 1.3125 -4.109375 L 0.375 -4.046875 L 0.375 -3.8125 C 0.78125 -3.8125 0.84375 -3.765625 0.84375 -3.484375 L 0.84375 -0.484375 C 0.84375 -0.234375 0.78125 -0.234375 0.375 -0.234375 L 0.375 0 C 0.421875 0 0.8125 -0.03125 1.078125 -0.03125 C 1.34375 -0.03125 1.734375 0 1.796875 0 L 1.796875 -0.234375 C 1.390625 -0.234375 1.328125 -0.234375 1.328125 -0.484375 L 1.328125 -1.53125 C 1.328125 -2.171875 1.890625 -2.421875 2.25 -2.421875 C 2.65625 -2.421875 2.75 -2.171875 2.75 -1.8125 L 2.75 -0.484375 C 2.75 -0.234375 2.6875 -0.234375 2.28125 -0.234375 L 2.28125 0 C 2.328125 0 2.71875 -0.03125 2.984375 -0.03125 C 3.25 -0.03125 3.640625 0 3.703125 0 L 3.703125 -0.234375 C 3.296875 -0.234375 3.234375 -0.234375 3.234375 -0.484375 Z M 3.234375 -1.78125 "/>
</g>
<g id="glyph-1-9">
<path d="M 2.78125 -1.34375 C 2.90625 -1.34375 2.953125 -1.34375 2.953125 -1.484375 C 2.953125 -1.9375 2.703125 -2.640625 1.71875 -2.640625 C 0.890625 -2.640625 0.28125 -2 0.28125 -1.296875 C 0.28125 -0.546875 0.96875 0.0625 1.796875 0.0625 C 2.65625 0.0625 2.953125 -0.578125 2.953125 -0.703125 C 2.953125 -0.734375 2.9375 -0.8125 2.84375 -0.8125 C 2.765625 -0.8125 2.75 -0.765625 2.734375 -0.703125 C 2.546875 -0.265625 2.109375 -0.140625 1.828125 -0.140625 C 1.515625 -0.140625 1.234375 -0.296875 1.0625 -0.515625 C 0.84375 -0.78125 0.84375 -1.171875 0.84375 -1.34375 Z M 0.859375 -1.515625 C 0.921875 -2.3125 1.46875 -2.453125 1.71875 -2.453125 C 2.46875 -2.453125 2.515625 -1.6875 2.515625 -1.515625 Z M 0.859375 -1.515625 "/>
</g>
<g id="glyph-1-10">
<path d="M 2.28125 -2.546875 L 2.28125 -2.3125 C 2.6875 -2.3125 2.75 -2.28125 2.75 -1.984375 L 2.75 -1 C 2.75 -0.453125 2.375 -0.125 1.921875 -0.125 C 1.359375 -0.125 1.328125 -0.375 1.328125 -0.671875 L 1.328125 -2.609375 L 0.375 -2.546875 L 0.375 -2.3125 C 0.84375 -2.3125 0.84375 -2.265625 0.84375 -1.90625 L 0.84375 -0.984375 C 0.84375 -0.59375 0.84375 -0.328125 1.109375 -0.125 C 1.328125 0.03125 1.625 0.0625 1.875 0.0625 C 2.25 0.0625 2.5625 -0.09375 2.765625 -0.421875 L 2.765625 0.0625 L 3.703125 0 L 3.703125 -0.234375 C 3.296875 -0.234375 3.234375 -0.265625 3.234375 -0.5625 L 3.234375 -2.609375 Z M 2.28125 -2.546875 "/>
</g>
<g id="glyph-1-11">
<path d="M 1.28125 -4.109375 L 0.34375 -4.046875 L 0.34375 -3.8125 C 0.765625 -3.8125 0.8125 -3.765625 0.8125 -3.484375 L 0.8125 0 L 1.03125 0 C 1.140625 -0.203125 1.21875 -0.328125 1.234375 -0.359375 C 1.4375 -0.125 1.734375 0.0625 2.15625 0.0625 C 2.96875 0.0625 3.671875 -0.53125 3.671875 -1.28125 C 3.671875 -2 3.03125 -2.609375 2.21875 -2.609375 C 1.90625 -2.609375 1.5625 -2.515625 1.28125 -2.265625 Z M 1.296875 -1.96875 C 1.484375 -2.265625 1.84375 -2.421875 2.1875 -2.421875 C 2.5 -2.421875 2.734375 -2.265625 2.875 -2.109375 C 3.0625 -1.875 3.109375 -1.59375 3.109375 -1.28125 C 3.109375 -0.15625 2.25 -0.125 2.125 -0.125 C 1.921875 -0.125 1.625 -0.1875 1.390625 -0.5 C 1.296875 -0.609375 1.296875 -0.625 1.296875 -0.734375 Z M 1.296875 -1.96875 "/>
</g>
<g id="glyph-1-12">
<path d="M 2.0625 -1.59375 C 2.703125 -2.078125 3.015625 -2.3125 3.453125 -2.328125 L 3.453125 -2.546875 C 3.375 -2.546875 3.203125 -2.53125 3.015625 -2.53125 C 2.75 -2.53125 2.328125 -2.546875 2.28125 -2.546875 L 2.28125 -2.328125 C 2.375 -2.3125 2.390625 -2.234375 2.390625 -2.234375 C 2.390625 -2.203125 2.375 -2.109375 2.203125 -1.984375 L 1.28125 -1.3125 L 1.28125 -4.109375 L 0.34375 -4.046875 L 0.34375 -3.8125 C 0.765625 -3.8125 0.8125 -3.765625 0.8125 -3.484375 L 0.8125 -0.484375 C 0.8125 -0.234375 0.75 -0.234375 0.34375 -0.234375 L 0.34375 0 C 0.5 -0.015625 0.90625 -0.03125 1.03125 -0.03125 C 1.125 -0.03125 1.546875 -0.015625 1.734375 0 L 1.734375 -0.234375 C 1.328125 -0.234375 1.265625 -0.234375 1.265625 -0.484375 L 1.265625 -1.03125 L 1.71875 -1.34375 C 1.734375 -1.328125 1.890625 -1.140625 2.375 -0.578125 C 2.4375 -0.5 2.515625 -0.421875 2.515625 -0.328125 C 2.515625 -0.25 2.421875 -0.234375 2.359375 -0.234375 L 2.359375 0 C 2.484375 -0.015625 2.90625 -0.03125 3.0625 -0.03125 C 3.28125 -0.03125 3.546875 0 3.609375 0 L 3.609375 -0.234375 C 3.296875 -0.234375 3.203125 -0.28125 3 -0.515625 Z M 2.0625 -1.59375 "/>
</g>
<g id="glyph-1-13">
<path d="M 3.34375 -4 C 3.34375 -4.109375 3.34375 -4.171875 3.25 -4.171875 C 3.21875 -4.171875 3.1875 -4.171875 3.140625 -4.09375 L 2.921875 -3.75 C 2.578125 -4.09375 2.15625 -4.171875 1.8125 -4.171875 C 1.046875 -4.171875 0.46875 -3.640625 0.46875 -3.03125 C 0.46875 -2.734375 0.609375 -2.46875 0.828125 -2.265625 C 1.09375 -2.03125 1.296875 -1.984375 1.953125 -1.84375 C 2.5625 -1.71875 2.703125 -1.6875 2.890625 -1.515625 C 2.953125 -1.4375 3.15625 -1.25 3.15625 -0.9375 C 3.15625 -0.53125 2.78125 -0.109375 2.171875 -0.109375 C 1.65625 -0.109375 0.734375 -0.265625 0.6875 -1.203125 C 0.6875 -1.296875 0.6875 -1.34375 0.578125 -1.34375 C 0.46875 -1.34375 0.46875 -1.296875 0.46875 -1.171875 L 0.46875 -0.046875 C 0.46875 0.0625 0.46875 0.125 0.5625 0.125 C 0.609375 0.125 0.625 0.09375 0.65625 0.046875 C 0.671875 0.03125 0.796875 -0.15625 0.875 -0.28125 C 1.3125 0.078125 1.890625 0.125 2.171875 0.125 C 2.984375 0.125 3.53125 -0.46875 3.53125 -1.09375 C 3.53125 -1.5 3.296875 -1.78125 3.203125 -1.875 C 2.90625 -2.171875 2.734375 -2.21875 2 -2.375 C 1.8125 -2.40625 1.515625 -2.46875 1.4375 -2.5 C 1.125 -2.59375 0.84375 -2.859375 0.84375 -3.1875 C 0.84375 -3.59375 1.234375 -3.953125 1.8125 -3.953125 C 2.125 -3.953125 2.4375 -3.875 2.671875 -3.671875 C 3.03125 -3.40625 3.09375 -2.96875 3.109375 -2.828125 C 3.125 -2.734375 3.125 -2.703125 3.234375 -2.703125 C 3.34375 -2.703125 3.34375 -2.75 3.34375 -2.859375 Z M 3.34375 -4 "/>
</g>
<g id="glyph-1-14">
<path d="M 4.6875 -4 L 0.46875 -4 L 0.328125 -2.625 L 0.546875 -2.625 C 0.640625 -3.6875 0.875 -3.765625 1.765625 -3.765625 C 1.890625 -3.765625 2.078125 -3.765625 2.140625 -3.765625 C 2.28125 -3.75 2.28125 -3.6875 2.28125 -3.546875 L 2.28125 -0.5 C 2.28125 -0.3125 2.28125 -0.234375 1.65625 -0.234375 L 1.390625 -0.234375 L 1.390625 0 C 1.671875 -0.03125 2.265625 -0.03125 2.578125 -0.03125 C 2.890625 -0.03125 3.46875 -0.03125 3.765625 0 L 3.765625 -0.234375 L 3.5 -0.234375 C 2.875 -0.234375 2.875 -0.3125 2.875 -0.5 L 2.875 -3.546875 C 2.875 -3.6875 2.875 -3.75 3 -3.765625 C 3.0625 -3.765625 3.25 -3.765625 3.375 -3.765625 C 4.28125 -3.765625 4.5 -3.6875 4.59375 -2.625 L 4.8125 -2.625 Z M 4.6875 -4 "/>
</g>
<g id="glyph-1-15">
<path d="M 2.125 -3.765625 C 2.125 -3.9375 2.109375 -3.9375 1.921875 -3.9375 C 1.53125 -3.5625 0.9375 -3.5625 0.71875 -3.5625 L 0.71875 -3.328125 C 0.875 -3.328125 1.265625 -3.328125 1.609375 -3.5 L 1.609375 -0.5 C 1.609375 -0.3125 1.609375 -0.234375 1 -0.234375 L 0.75 -0.234375 L 0.75 0 C 1.078125 -0.03125 1.546875 -0.03125 1.875 -0.03125 C 2.203125 -0.03125 2.671875 -0.03125 2.984375 0 L 2.984375 -0.234375 L 2.734375 -0.234375 C 2.125 -0.234375 2.125 -0.3125 2.125 -0.5 Z M 2.125 -3.765625 "/>
</g>
<g id="glyph-1-16">
<path d="M 3.1875 -1.109375 L 2.96875 -1.109375 C 2.953125 -1.03125 2.890625 -0.640625 2.8125 -0.5625 C 2.765625 -0.53125 2.28125 -0.53125 2.203125 -0.53125 L 1.09375 -0.53125 L 1.859375 -1.15625 C 2.0625 -1.3125 2.578125 -1.6875 2.765625 -1.859375 C 2.9375 -2.046875 3.1875 -2.34375 3.1875 -2.765625 C 3.1875 -3.5 2.515625 -3.9375 1.71875 -3.9375 C 0.953125 -3.9375 0.421875 -3.4375 0.421875 -2.875 C 0.421875 -2.578125 0.6875 -2.546875 0.75 -2.546875 C 0.890625 -2.546875 1.0625 -2.640625 1.0625 -2.859375 C 1.0625 -2.984375 0.984375 -3.1875 0.734375 -3.1875 C 0.859375 -3.484375 1.21875 -3.703125 1.640625 -3.703125 C 2.25 -3.703125 2.59375 -3.25 2.59375 -2.765625 C 2.59375 -2.34375 2.3125 -1.90625 1.890625 -1.53125 L 0.484375 -0.25 C 0.4375 -0.1875 0.421875 -0.1875 0.421875 0 L 3 0 Z M 3.1875 -1.109375 "/>
</g>
<g id="glyph-1-17">
<path d="M 1.734375 -1.96875 C 2.25 -1.96875 2.578125 -1.625 2.578125 -1.03125 C 2.578125 -0.375 2.1875 -0.09375 1.765625 -0.09375 C 1.59375 -0.09375 0.984375 -0.125 0.71875 -0.46875 C 0.953125 -0.484375 1.046875 -0.640625 1.046875 -0.8125 C 1.046875 -1 0.90625 -1.140625 0.703125 -1.140625 C 0.546875 -1.140625 0.375 -1.046875 0.375 -0.796875 C 0.375 -0.203125 1.03125 0.125 1.78125 0.125 C 2.65625 0.125 3.234375 -0.4375 3.234375 -1.03125 C 3.234375 -1.453125 2.90625 -1.90625 2.203125 -2.09375 C 2.671875 -2.25 3.046875 -2.625 3.046875 -3.109375 C 3.046875 -3.578125 2.5 -3.9375 1.78125 -3.9375 C 1.09375 -3.9375 0.5625 -3.625 0.5625 -3.125 C 0.5625 -2.875 0.765625 -2.8125 0.875 -2.8125 C 1.03125 -2.8125 1.1875 -2.90625 1.1875 -3.125 C 1.1875 -3.296875 1.0625 -3.40625 0.90625 -3.4375 C 1.171875 -3.75 1.71875 -3.75 1.765625 -3.75 C 2.078125 -3.75 2.453125 -3.59375 2.453125 -3.109375 C 2.453125 -2.78125 2.265625 -2.21875 1.671875 -2.171875 C 1.5625 -2.171875 1.40625 -2.15625 1.359375 -2.15625 C 1.296875 -2.15625 1.234375 -2.15625 1.234375 -2.0625 C 1.234375 -1.96875 1.296875 -1.96875 1.390625 -1.96875 Z M 1.734375 -1.96875 "/>
</g>
<g id="glyph-1-18">
<path d="M 2.984375 -1.953125 C 3.15625 -2.3125 3.453125 -2.3125 3.578125 -2.328125 L 3.578125 -2.546875 C 3.53125 -2.546875 3.28125 -2.53125 3.09375 -2.53125 C 2.9375 -2.53125 2.609375 -2.546875 2.53125 -2.546875 L 2.53125 -2.328125 C 2.75 -2.3125 2.78125 -2.171875 2.78125 -2.109375 C 2.78125 -2.03125 2.765625 -1.984375 2.734375 -1.9375 L 2.046875 -0.53125 L 1.28125 -2.078125 C 1.265625 -2.109375 1.25 -2.15625 1.25 -2.1875 C 1.25 -2.328125 1.453125 -2.328125 1.546875 -2.328125 L 1.546875 -2.546875 C 1.421875 -2.546875 1 -2.53125 0.859375 -2.53125 C 0.765625 -2.53125 0.390625 -2.546875 0.234375 -2.546875 L 0.234375 -2.328125 C 0.59375 -2.328125 0.65625 -2.296875 0.75 -2.109375 L 1.78125 0 C 1.75 0.078125 1.65625 0.25 1.625 0.3125 C 1.46875 0.609375 1.265625 1.015625 0.859375 1.015625 C 0.828125 1.015625 0.703125 1.015625 0.59375 0.953125 C 0.65625 0.921875 0.75 0.859375 0.75 0.703125 C 0.75 0.546875 0.640625 0.4375 0.484375 0.4375 C 0.34375 0.4375 0.21875 0.53125 0.21875 0.71875 C 0.21875 1 0.515625 1.203125 0.84375 1.203125 C 1.375 1.203125 1.671875 0.703125 1.765625 0.53125 Z M 2.984375 -1.953125 "/>
</g>
<g id="glyph-1-19">
<path d="M 5.15625 -1.78125 C 5.15625 -2.390625 4.796875 -2.609375 4.21875 -2.609375 C 3.671875 -2.609375 3.34375 -2.296875 3.21875 -2.078125 C 3.078125 -2.609375 2.46875 -2.609375 2.3125 -2.609375 C 1.765625 -2.609375 1.4375 -2.3125 1.296875 -2.0625 L 1.296875 -2.609375 L 0.375 -2.546875 L 0.375 -2.3125 C 0.78125 -2.3125 0.84375 -2.28125 0.84375 -1.984375 L 0.84375 -0.484375 C 0.84375 -0.234375 0.78125 -0.234375 0.375 -0.234375 L 0.375 0 C 0.421875 0 0.8125 -0.03125 1.078125 -0.03125 C 1.34375 -0.03125 1.734375 0 1.796875 0 L 1.796875 -0.234375 C 1.390625 -0.234375 1.328125 -0.234375 1.328125 -0.484375 L 1.328125 -1.53125 C 1.328125 -2.171875 1.890625 -2.421875 2.25 -2.421875 C 2.671875 -2.421875 2.75 -2.171875 2.75 -1.796875 L 2.75 -0.484375 C 2.75 -0.234375 2.6875 -0.234375 2.28125 -0.234375 L 2.28125 0 C 2.328125 0 2.734375 -0.03125 3 -0.03125 C 3.265625 -0.03125 3.65625 0 3.71875 0 L 3.71875 -0.234375 C 3.296875 -0.234375 3.25 -0.234375 3.25 -0.484375 L 3.25 -1.53125 C 3.25 -2.171875 3.8125 -2.421875 4.171875 -2.421875 C 4.578125 -2.421875 4.671875 -2.171875 4.671875 -1.796875 L 4.671875 -0.484375 C 4.671875 -0.234375 4.609375 -0.234375 4.203125 -0.234375 L 4.203125 0 C 4.234375 0 4.640625 -0.03125 4.90625 -0.03125 C 5.171875 -0.03125 5.5625 0 5.625 0 L 5.625 -0.234375 C 5.21875 -0.234375 5.15625 -0.234375 5.15625 -0.484375 Z M 5.15625 -1.78125 "/>
</g>
<g id="glyph-1-20">
<path d="M 1.328125 -2.328125 L 2.09375 -2.328125 L 2.09375 -2.546875 L 1.296875 -2.546875 L 1.296875 -3.203125 C 1.296875 -3.75 1.640625 -3.984375 1.890625 -3.984375 C 1.953125 -3.984375 2.03125 -3.96875 2.046875 -3.953125 C 2 -3.921875 1.9375 -3.875 1.9375 -3.734375 C 1.9375 -3.578125 2.046875 -3.453125 2.21875 -3.453125 C 2.390625 -3.453125 2.5 -3.578125 2.5 -3.734375 C 2.5 -3.984375 2.25 -4.171875 1.890625 -4.171875 C 1.40625 -4.171875 0.859375 -3.84375 0.859375 -3.203125 L 0.859375 -2.546875 L 0.3125 -2.546875 L 0.3125 -2.328125 L 0.859375 -2.328125 L 0.859375 -0.484375 C 0.859375 -0.234375 0.796875 -0.234375 0.390625 -0.234375 L 0.390625 0 C 0.53125 -0.015625 0.96875 -0.03125 1.09375 -0.03125 C 1.40625 -0.03125 1.8125 0 1.90625 0 L 1.90625 -0.234375 L 1.765625 -0.234375 C 1.328125 -0.234375 1.328125 -0.296875 1.328125 -0.484375 Z M 1.328125 -2.328125 "/>
</g>
<g id="glyph-1-21">
<path d="M 3.1875 -2.609375 L 2.984375 -2.609375 L 2.765625 -2.109375 C 2.65625 -2.28125 2.359375 -2.609375 1.828125 -2.609375 C 1.03125 -2.609375 0.3125 -2.03125 0.3125 -1.265625 C 0.3125 -0.546875 0.984375 0.0625 1.78125 0.0625 C 2.203125 0.0625 2.5 -0.140625 2.6875 -0.34375 L 2.6875 0.65625 C 2.6875 0.921875 2.640625 0.921875 2.234375 0.921875 L 2.234375 1.15625 C 2.265625 1.140625 2.671875 1.125 2.9375 1.125 C 3.203125 1.125 3.59375 1.140625 3.65625 1.15625 L 3.65625 0.921875 C 3.25 0.921875 3.1875 0.921875 3.1875 0.65625 Z M 2.71875 -0.875 C 2.71875 -0.671875 2.578125 -0.5 2.421875 -0.359375 C 2.171875 -0.140625 1.90625 -0.125 1.8125 -0.125 C 1.296875 -0.125 0.875 -0.640625 0.875 -1.265625 C 0.875 -1.921875 1.34375 -2.40625 1.890625 -2.40625 C 2.375 -2.40625 2.71875 -1.9375 2.71875 -1.59375 Z M 2.71875 -0.875 "/>
</g>
<g id="glyph-1-22">
<path d="M 1.28125 -0.09375 C 1.28125 0.4375 1.03125 0.765625 0.828125 0.9375 C 0.78125 1 0.765625 1.015625 0.765625 1.046875 C 0.765625 1.09375 0.8125 1.15625 0.859375 1.15625 C 0.9375 1.15625 1.46875 0.6875 1.46875 -0.046875 C 1.46875 -0.421875 1.328125 -0.703125 1.046875 -0.703125 C 0.8125 -0.703125 0.6875 -0.53125 0.6875 -0.359375 C 0.6875 -0.171875 0.8125 0 1.046875 0 C 1.15625 0 1.25 -0.046875 1.28125 -0.09375 Z M 1.28125 -0.09375 "/>
</g>
<g id="glyph-1-23">
<path d="M 1 -3.28125 C 1.203125 -3.234375 1.40625 -3.203125 1.609375 -3.203125 C 1.734375 -3.203125 2.078125 -3.203125 2.453125 -3.421875 C 2.546875 -3.46875 2.90625 -3.71875 2.90625 -3.84375 C 2.90625 -3.921875 2.859375 -3.9375 2.828125 -3.9375 C 2.8125 -3.9375 2.8125 -3.9375 2.734375 -3.921875 C 2.53125 -3.828125 2.234375 -3.75 1.84375 -3.75 C 1.546875 -3.75 1.234375 -3.796875 0.96875 -3.90625 C 0.90625 -3.921875 0.875 -3.9375 0.859375 -3.9375 C 0.78125 -3.9375 0.78125 -3.875 0.78125 -3.78125 L 0.78125 -2 C 0.78125 -1.90625 0.78125 -1.828125 0.875 -1.828125 C 0.9375 -1.828125 0.953125 -1.859375 1 -1.90625 C 1.140625 -2.09375 1.40625 -2.296875 1.859375 -2.296875 C 2.59375 -2.296875 2.59375 -1.40625 2.59375 -1.21875 C 2.59375 -0.984375 2.578125 -0.65625 2.375 -0.40625 C 2.203125 -0.1875 1.921875 -0.09375 1.671875 -0.09375 C 1.265625 -0.09375 0.859375 -0.3125 0.703125 -0.65625 C 1 -0.65625 1.03125 -0.890625 1.03125 -0.96875 C 1.03125 -1.125 0.90625 -1.265625 0.734375 -1.265625 C 0.671875 -1.265625 0.421875 -1.234375 0.421875 -0.9375 C 0.421875 -0.390625 0.9375 0.125 1.6875 0.125 C 2.5 0.125 3.1875 -0.453125 3.1875 -1.1875 C 3.1875 -1.859375 2.640625 -2.484375 1.875 -2.484375 C 1.5 -2.484375 1.203125 -2.359375 1 -2.203125 Z M 1 -3.28125 "/>
</g>
<g id="glyph-1-24">
<path d="M 3.25 -1.890625 C 3.25 -2.328125 3.25 -3.9375 1.8125 -3.9375 C 0.359375 -3.9375 0.359375 -2.328125 0.359375 -1.890625 C 0.359375 -1.46875 0.359375 0.125 1.8125 0.125 C 3.25 0.125 3.25 -1.46875 3.25 -1.890625 Z M 1.8125 -0.0625 C 1.5625 -0.0625 1.15625 -0.1875 1.015625 -0.671875 C 0.921875 -1.015625 0.921875 -1.59375 0.921875 -1.96875 C 0.921875 -2.359375 0.921875 -2.8125 1 -3.140625 C 1.15625 -3.671875 1.59375 -3.75 1.8125 -3.75 C 2.078125 -3.75 2.46875 -3.625 2.59375 -3.171875 C 2.6875 -2.859375 2.6875 -2.421875 2.6875 -1.96875 C 2.6875 -1.59375 2.6875 -0.984375 2.59375 -0.65625 C 2.421875 -0.140625 2 -0.0625 1.8125 -0.0625 Z M 1.8125 -0.0625 "/>
</g>
<g id="glyph-1-25">
<path d="M 4.8125 -4.15625 C 4.84375 -4.203125 4.875 -4.234375 4.875 -4.28125 C 4.875 -4.375 4.796875 -4.4375 4.71875 -4.4375 C 4.65625 -4.4375 4.609375 -4.40625 4.5625 -4.34375 C 4.28125 -4.015625 3.875 -3.78125 3.296875 -3.78125 C 2.734375 -3.78125 2.296875 -4 2 -4.234375 C 1.859375 -4.34375 1.71875 -4.4375 1.46875 -4.4375 C 0.953125 -4.4375 0.46875 -3.9375 0.46875 -3.25 C 0.46875 -2.546875 0.953125 -2.0625 1.46875 -2.0625 C 1.984375 -2.0625 2.375 -2.578125 2.375 -3.25 C 2.375 -3.53125 2.3125 -3.75 2.265625 -3.84375 C 2.625 -3.65625 2.953125 -3.59375 3.296875 -3.59375 C 3.421875 -3.59375 3.71875 -3.59375 4.078125 -3.75 L 4.09375 -3.734375 L 1.125 0.03125 C 1.0625 0.109375 1.046875 0.125 1.046875 0.171875 C 1.046875 0.265625 1.109375 0.328125 1.203125 0.328125 C 1.265625 0.328125 1.296875 0.296875 1.34375 0.234375 Z M 1.484375 -2.25 C 1.359375 -2.25 0.90625 -2.296875 0.90625 -3.25 C 0.90625 -4.1875 1.359375 -4.25 1.484375 -4.25 C 1.8125 -4.25 2.15625 -3.84375 2.15625 -3.25 C 2.15625 -2.640625 1.8125 -2.25 1.484375 -2.25 Z M 5.453125 -0.859375 C 5.453125 -1.546875 5.046875 -2.0625 4.546875 -2.0625 C 4.015625 -2.0625 3.53125 -1.546875 3.53125 -0.859375 C 3.53125 -0.15625 4.03125 0.328125 4.546875 0.328125 C 5.046875 0.328125 5.453125 -0.203125 5.453125 -0.859375 Z M 4.546875 0.140625 C 4.421875 0.140625 3.984375 0.078125 3.984375 -0.859375 C 3.984375 -1.8125 4.421875 -1.859375 4.546875 -1.859375 C 4.890625 -1.859375 5.234375 -1.453125 5.234375 -0.859375 C 5.234375 -0.25 4.875 0.140625 4.546875 0.140625 Z M 4.546875 0.140625 "/>
</g>
<g id="glyph-1-26">
<path d="M 4.390625 -1.953125 C 4.546875 -2.3125 4.828125 -2.328125 4.921875 -2.328125 L 4.921875 -2.546875 C 4.90625 -2.546875 4.671875 -2.53125 4.453125 -2.53125 C 4.296875 -2.53125 3.9375 -2.546875 3.859375 -2.546875 L 3.859375 -2.328125 C 4.109375 -2.3125 4.1875 -2.171875 4.1875 -2.0625 C 4.1875 -2.015625 4.171875 -2 4.140625 -1.9375 L 3.546875 -0.46875 L 2.859375 -2.09375 C 2.859375 -2.109375 2.84375 -2.15625 2.84375 -2.171875 C 2.84375 -2.328125 3.0625 -2.328125 3.171875 -2.328125 L 3.171875 -2.546875 C 3.046875 -2.546875 2.625 -2.53125 2.515625 -2.53125 C 2.3125 -2.53125 2.0625 -2.546875 1.953125 -2.546875 L 1.953125 -2.328125 C 2.28125 -2.328125 2.359375 -2.328125 2.453125 -2.046875 L 1.84375 -0.5625 L 1.21875 -2.0625 C 1.1875 -2.125 1.171875 -2.15625 1.171875 -2.171875 C 1.171875 -2.328125 1.40625 -2.328125 1.515625 -2.328125 L 1.515625 -2.546875 C 1.390625 -2.546875 0.96875 -2.53125 0.8125 -2.53125 C 0.765625 -2.53125 0.390625 -2.53125 0.21875 -2.546875 L 0.21875 -2.328125 C 0.578125 -2.328125 0.609375 -2.296875 0.6875 -2.125 L 1.53125 -0.09375 C 1.5625 0 1.59375 0.0625 1.703125 0.0625 C 1.78125 0.0625 1.828125 0.03125 1.890625 -0.078125 L 2.5625 -1.75 L 3.265625 -0.078125 C 3.3125 0.046875 3.375 0.0625 3.4375 0.0625 C 3.5625 0.0625 3.578125 0 3.625 -0.09375 Z M 4.390625 -1.953125 "/>
</g>
<g id="glyph-1-27">
<path d="M 1.734375 -3.90625 C 1.671875 -4.046875 1.625 -4.046875 1.5 -4.046875 L 0.421875 -4.046875 L 0.421875 -3.8125 L 0.578125 -3.8125 C 1.046875 -3.8125 1.046875 -3.75 1.046875 -3.546875 L 1.046875 -0.65625 C 1.046875 -0.5 1.046875 -0.234375 0.421875 -0.234375 L 0.421875 0 C 0.53125 0 0.921875 -0.03125 1.171875 -0.03125 C 1.4375 -0.03125 1.8125 0 1.921875 0 L 1.921875 -0.234375 C 1.296875 -0.234375 1.296875 -0.5 1.296875 -0.65625 L 1.296875 -3.765625 L 2.90625 -0.140625 C 2.9375 -0.09375 2.96875 0 3.078125 0 C 3.171875 0 3.21875 -0.09375 3.234375 -0.140625 L 4.875 -3.8125 L 4.875 -0.5 C 4.875 -0.296875 4.875 -0.234375 4.40625 -0.234375 L 4.25 -0.234375 L 4.25 0 C 4.375 0 4.875 -0.03125 5.140625 -0.03125 C 5.421875 -0.03125 5.90625 0 6.03125 0 L 6.03125 -0.234375 L 5.875 -0.234375 C 5.40625 -0.234375 5.40625 -0.296875 5.40625 -0.5 L 5.40625 -3.546875 C 5.40625 -3.75 5.40625 -3.8125 5.875 -3.8125 L 6.03125 -3.8125 L 6.03125 -4.046875 L 4.96875 -4.046875 C 4.828125 -4.046875 4.78125 -4.046875 4.71875 -3.90625 L 3.234375 -0.5625 Z M 1.734375 -3.90625 "/>
</g>
<g id="glyph-1-28">
<path d="M 4.671875 -4 C 4.671875 -4.109375 4.671875 -4.171875 4.578125 -4.171875 C 4.53125 -4.171875 4.515625 -4.140625 4.484375 -4.09375 L 4.15625 -3.640625 C 3.8125 -3.984375 3.34375 -4.171875 2.859375 -4.171875 C 1.546875 -4.171875 0.46875 -3.203125 0.46875 -2.03125 C 0.46875 -0.828125 1.546875 0.125 2.859375 0.125 C 3.9375 0.125 4.671875 -0.640625 4.671875 -1.390625 C 4.671875 -1.453125 4.671875 -1.515625 4.5625 -1.515625 C 4.46875 -1.515625 4.46875 -1.46875 4.453125 -1.40625 C 4.40625 -0.5 3.59375 -0.109375 2.9375 -0.109375 C 2.234375 -0.109375 1.125 -0.53125 1.125 -2.03125 C 1.125 -3.5 2.203125 -3.9375 2.9375 -3.9375 C 3.59375 -3.9375 4.296875 -3.484375 4.4375 -2.578125 C 4.453125 -2.5 4.453125 -2.453125 4.5625 -2.453125 C 4.671875 -2.453125 4.671875 -2.5 4.671875 -2.625 Z M 4.671875 -4 "/>
</g>
<g id="glyph-2-0">
<path d="M 1.8125 -3.234375 C 1.84375 -3.3125 1.84375 -3.3125 1.84375 -3.34375 C 1.84375 -3.421875 1.765625 -3.421875 1.6875 -3.421875 L 1.078125 -3.375 C 1 -3.375 0.984375 -3.375 0.953125 -3.34375 C 0.9375 -3.328125 0.921875 -3.265625 0.921875 -3.234375 C 0.921875 -3.15625 1 -3.15625 1.078125 -3.15625 C 1.078125 -3.15625 1.171875 -3.15625 1.234375 -3.140625 C 1.328125 -3.125 1.34375 -3.109375 1.34375 -3.078125 C 1.34375 -3.0625 1.34375 -3.046875 1.3125 -2.96875 L 0.625 -0.234375 C 0.609375 -0.15625 0.609375 -0.15625 0.609375 -0.125 C 0.609375 -0.015625 0.703125 0.046875 0.796875 0.046875 C 1 0.046875 1.03125 -0.125 1.0625 -0.203125 L 1.28125 -1.109375 C 1.40625 -1.09375 2.03125 -1.0625 2.03125 -0.71875 C 2.03125 -0.6875 2.03125 -0.65625 2.015625 -0.609375 C 2 -0.53125 2 -0.5 2 -0.46875 C 2 -0.125 2.3125 0.046875 2.59375 0.046875 C 3.09375 0.046875 3.296875 -0.65625 3.296875 -0.71875 C 3.296875 -0.78125 3.21875 -0.78125 3.1875 -0.78125 C 3.109375 -0.78125 3.09375 -0.75 3.078125 -0.671875 C 3.03125 -0.5 2.890625 -0.109375 2.609375 -0.109375 C 2.4375 -0.109375 2.40625 -0.296875 2.40625 -0.40625 C 2.40625 -0.40625 2.40625 -0.484375 2.421875 -0.5625 C 2.453125 -0.640625 2.453125 -0.6875 2.453125 -0.734375 C 2.453125 -1.171875 1.90625 -1.234375 1.578125 -1.265625 C 1.71875 -1.34375 1.9375 -1.515625 2.015625 -1.578125 C 2.296875 -1.796875 2.5625 -2.015625 2.84375 -2.015625 C 2.953125 -2.015625 2.984375 -1.984375 3.015625 -1.953125 C 3.015625 -1.953125 2.984375 -1.9375 2.984375 -1.9375 C 2.75 -1.859375 2.75 -1.65625 2.75 -1.640625 C 2.75 -1.5625 2.8125 -1.4375 2.96875 -1.4375 C 3.078125 -1.4375 3.28125 -1.515625 3.28125 -1.796875 C 3.28125 -2.03125 3.09375 -2.1875 2.859375 -2.1875 C 2.515625 -2.1875 2.234375 -1.953125 1.875 -1.65625 C 1.703125 -1.53125 1.53125 -1.40625 1.34375 -1.328125 Z M 1.8125 -3.234375 "/>
</g>
<g id="glyph-3-0">
<path d="M 1.484375 -1.484375 C 1.484375 -1.6875 1.3125 -1.84375 1.125 -1.84375 C 0.90625 -1.84375 0.765625 -1.65625 0.765625 -1.484375 C 0.765625 -1.296875 0.921875 -1.125 1.125 -1.125 C 1.3125 -1.125 1.484375 -1.296875 1.484375 -1.484375 Z M 1.484375 -1.484375 "/>
</g>
<g id="glyph-4-0">
<path d="M 2.609375 -4.0625 L 2.609375 -3.703125 C 2.96875 -3.703125 3.015625 -3.703125 3.015625 -3.46875 L 3.015625 -2.421875 C 2.84375 -2.53125 2.515625 -2.671875 2.0625 -2.671875 C 0.90625 -2.671875 0.3125 -2.046875 0.3125 -1.3125 C 0.3125 -0.609375 0.875 0.046875 1.984375 0.046875 C 2.40625 0.046875 2.75 -0.09375 2.96875 -0.25 L 2.96875 0.046875 L 4.15625 0 L 4.15625 -0.359375 C 3.78125 -0.359375 3.75 -0.359375 3.75 -0.59375 L 3.75 -4.109375 Z M 2.96875 -0.734375 C 2.71875 -0.390625 2.359375 -0.265625 2.046875 -0.265625 C 1.171875 -0.265625 1.171875 -0.984375 1.171875 -1.296875 C 1.171875 -1.640625 1.171875 -2.375 2.125 -2.375 C 2.46875 -2.375 2.734375 -2.234375 2.890625 -2.078125 C 2.96875 -2 2.96875 -2 2.96875 -1.890625 Z M 2.96875 -0.734375 "/>
</g>
<g id="glyph-4-1">
<path d="M 1.53125 -1.203125 C 1.53125 -1.78125 1.828125 -2.328125 2.34375 -2.375 C 2.328125 -2.34375 2.265625 -2.25 2.265625 -2.125 C 2.265625 -1.859375 2.484375 -1.71875 2.6875 -1.71875 C 2.875 -1.71875 3.09375 -1.859375 3.09375 -2.125 C 3.09375 -2.46875 2.734375 -2.671875 2.375 -2.671875 C 1.875 -2.671875 1.578125 -2.296875 1.4375 -2.015625 L 1.4375 -2.671875 L 0.390625 -2.625 L 0.390625 -2.265625 C 0.765625 -2.265625 0.796875 -2.265625 0.796875 -2.03125 L 0.796875 -0.359375 L 0.390625 -0.359375 L 0.390625 0 C 0.546875 -0.015625 0.96875 -0.03125 1.171875 -0.03125 C 1.46875 -0.03125 1.953125 0 2.046875 0 L 2.046875 -0.359375 L 1.53125 -0.359375 Z M 1.53125 -1.203125 "/>
</g>
<g id="glyph-4-2">
<path d="M 3.828125 -1.296875 C 3.828125 -1.96875 3.328125 -2.6875 2.046875 -2.6875 C 0.765625 -2.6875 0.265625 -1.953125 0.265625 -1.296875 C 0.265625 -0.609375 0.8125 0.046875 2.046875 0.046875 C 3.296875 0.046875 3.828125 -0.625 3.828125 -1.296875 Z M 2.046875 -0.296875 C 1.125 -0.296875 1.125 -0.859375 1.125 -1.359375 C 1.125 -1.828125 1.125 -2.390625 2.046875 -2.390625 C 2.96875 -2.390625 2.96875 -1.828125 2.96875 -1.359375 C 2.96875 -0.859375 2.96875 -0.296875 2.046875 -0.296875 Z M 2.046875 -0.296875 "/>
</g>
<g id="glyph-4-3">
<path d="M 1.984375 0.796875 L 1.5625 0.796875 L 1.5625 -0.21875 C 1.75 -0.09375 2.0625 0.046875 2.484375 0.046875 C 3.59375 0.046875 4.21875 -0.5625 4.21875 -1.328125 C 4.21875 -1.984375 3.734375 -2.671875 2.59375 -2.671875 C 2.078125 -2.671875 1.703125 -2.5 1.53125 -2.40625 L 1.53125 -2.671875 L 0.390625 -2.625 L 0.390625 -2.265625 C 0.515625 -2.265625 0.609375 -2.265625 0.6875 -2.25 C 0.796875 -2.234375 0.796875 -2.1875 0.796875 -2.0625 L 0.796875 0.796875 L 0.390625 0.796875 L 0.390625 1.15625 C 0.53125 1.140625 0.921875 1.125 1.1875 1.125 C 1.484375 1.125 1.890625 1.140625 1.984375 1.15625 Z M 1.5625 -1.859375 C 1.5625 -1.984375 1.578125 -1.984375 1.671875 -2.0625 C 1.984375 -2.328125 2.359375 -2.34375 2.484375 -2.34375 C 3.03125 -2.34375 3.375 -1.9375 3.375 -1.3125 C 3.375 -0.625 2.953125 -0.265625 2.40625 -0.265625 C 2.015625 -0.265625 1.734375 -0.46875 1.5625 -0.703125 Z M 1.5625 -1.859375 "/>
</g>
<g id="glyph-4-4">
<path d="M 3.25 -1.203125 C 3.375 -1.203125 3.46875 -1.203125 3.46875 -1.390625 C 3.46875 -1.578125 3.421875 -2.109375 3.015625 -2.421875 C 2.640625 -2.6875 2.140625 -2.6875 1.984375 -2.6875 C 0.765625 -2.6875 0.265625 -1.984375 0.265625 -1.34375 C 0.265625 -0.65625 0.8125 0.046875 2.09375 0.046875 C 2.3125 0.046875 2.640625 0.03125 2.953125 -0.125 C 3.3125 -0.28125 3.46875 -0.59375 3.46875 -0.671875 C 3.46875 -0.8125 3.34375 -0.8125 3.25 -0.8125 C 3.15625 -0.8125 3.109375 -0.8125 3.0625 -0.734375 C 3.015625 -0.609375 2.84375 -0.296875 2.203125 -0.296875 C 1.328125 -0.296875 1.15625 -0.78125 1.125 -1.203125 Z M 1.125 -1.484375 C 1.140625 -1.890625 1.28125 -2.390625 1.984375 -2.390625 C 2.5625 -2.390625 2.84375 -2.0625 2.875 -1.484375 Z M 1.125 -1.484375 "/>
</g>
<g id="glyph-4-5">
<path d="M 2.5 -1.59375 L 3.390625 -2.203125 C 3.453125 -2.25 3.484375 -2.28125 3.796875 -2.28125 L 3.953125 -2.28125 L 3.953125 -2.625 C 3.890625 -2.625 3.640625 -2.609375 3.40625 -2.609375 C 3.140625 -2.609375 2.671875 -2.625 2.59375 -2.625 L 2.59375 -2.28125 C 2.65625 -2.28125 2.671875 -2.265625 2.703125 -2.25 L 1.53125 -1.4375 L 1.53125 -4.109375 L 0.390625 -4.0625 L 0.390625 -3.703125 C 0.765625 -3.703125 0.796875 -3.703125 0.796875 -3.46875 L 0.796875 -0.359375 L 0.390625 -0.359375 L 0.390625 0 C 0.5 0 0.890625 -0.03125 1.140625 -0.03125 C 1.40625 -0.03125 1.78125 0 1.890625 0 L 1.890625 -0.359375 L 1.484375 -0.359375 L 1.484375 -0.90625 L 1.953125 -1.234375 L 2.796875 -0.375 C 2.765625 -0.359375 2.75 -0.359375 2.6875 -0.359375 L 2.6875 0 C 2.78125 0 3.1875 -0.03125 3.46875 -0.03125 C 3.484375 -0.03125 3.953125 -0.015625 4.140625 0 L 4.140625 -0.359375 L 3.921875 -0.359375 C 3.71875 -0.359375 3.703125 -0.359375 3.65625 -0.421875 Z M 2.5 -1.59375 "/>
</g>
<g id="glyph-4-6">
<path d="M 1.546875 -2.28125 L 2.578125 -2.28125 L 2.578125 -2.625 L 1.546875 -2.625 L 1.546875 -3.765625 L 1.125 -3.765625 C 1.109375 -3.15625 0.796875 -2.59375 0.203125 -2.578125 L 0.203125 -2.28125 L 0.78125 -2.28125 L 0.78125 -0.703125 C 0.78125 -0.09375 1.3125 0.046875 1.796875 0.046875 C 2.25 0.046875 2.71875 -0.171875 2.71875 -0.71875 L 2.71875 -1 L 2.296875 -1 L 2.296875 -0.734375 C 2.296875 -0.34375 2.03125 -0.296875 1.90625 -0.296875 C 1.546875 -0.296875 1.546875 -0.5625 1.546875 -0.703125 Z M 1.546875 -2.28125 "/>
</g>
<g id="glyph-5-0">
<path d="M 4.8125 -1.3125 C 4.890625 -1.359375 4.953125 -1.390625 4.953125 -1.484375 C 4.953125 -1.546875 4.921875 -1.59375 4.828125 -1.640625 L 1.03125 -3.453125 C 0.9375 -3.484375 0.90625 -3.484375 0.890625 -3.484375 C 0.8125 -3.484375 0.734375 -3.421875 0.734375 -3.328125 C 0.734375 -3.265625 0.78125 -3.21875 0.875 -3.171875 L 4.4375 -1.484375 L 0.890625 0.203125 C 0.796875 0.25 0.734375 0.28125 0.734375 0.375 C 0.734375 0.453125 0.8125 0.53125 0.890625 0.53125 C 0.90625 0.53125 0.9375 0.53125 1 0.484375 Z M 4.8125 -1.3125 "/>
</g>
</g>
<clipPath id="clip-0">
<path clip-rule="nonzero" d="M 1.414062 0 L 134 0 L 134 41 L 1.414062 41 Z M 1.414062 0 "/>
</clipPath>
<clipPath id="clip-1">
<path clip-rule="nonzero" d="M 259 0 L 391.132812 0 L 391.132812 41 L 259 41 Z M 259 0 "/>
</clipPath>
</defs>
<path fill-rule="nonzero" fill="rgb(89.730835%, 94.909668%, 95.254517%)" fill-opacity="1" d="M 117.902344 3.40625 L 7.78125 3.40625 C 6.144531 3.40625 4.816406 4.730469 4.816406 6.367188 L 4.816406 24.601562 C 4.816406 26.238281 6.144531 27.5625 7.78125 27.5625 L 117.902344 27.5625 C 119.539062 27.5625 120.867188 26.238281 120.867188 24.601562 L 120.867188 6.367188 C 120.867188 4.730469 119.539062 3.40625 117.902344 3.40625 Z M 117.902344 3.40625 "/>
<g clip-path="url(#clip-0)">
<path fill="none" stroke-width="0.89664" stroke-linecap="butt" stroke-linejoin="miter" stroke="rgb(37.330627%, 53.80249%, 54.902649%)" stroke-opacity="1" stroke-miterlimit="10" d="M -79.085115 64.91271 L -190.209697 64.91271 C -191.861331 64.91271 -193.201558 63.576424 -193.201558 61.924791 L -193.201558 43.524253 C -193.201558 41.87262 -191.861331 40.536334 -190.209697 40.536334 L -79.085115 40.536334 C -77.433481 40.536334 -76.093254 41.87262 -76.093254 43.524253 L -76.093254 61.924791 C -76.093254 63.576424 -77.433481 64.91271 -79.085115 64.91271 Z M -79.085115 64.91271 " transform="matrix(0.99097, 0, 0, -0.99097, 196.273296, 67.732779)"/>
</g>
<g fill="rgb(0%, 0%, 0%)" fill-opacity="1">
<use xlink:href="#glyph-0-0" x="34.24876" y="14.670315"/>
<use xlink:href="#glyph-0-1" x="41.239059" y="14.670315"/>
<use xlink:href="#glyph-0-2" x="45.333031" y="14.670315"/>
<use xlink:href="#glyph-0-1" x="50.297076" y="14.670315"/>
<use xlink:href="#glyph-0-3" x="54.391049" y="14.670315"/>
<use xlink:href="#glyph-0-4" x="58.084884" y="14.670315"/>
<use xlink:href="#glyph-0-5" x="62.435248" y="14.670315"/>
<use xlink:href="#glyph-0-6" x="64.944569" y="14.670315"/>
<use xlink:href="#glyph-0-7" x="67.453889" y="14.670315"/>
<use xlink:href="#glyph-0-8" x="70.994304" y="14.670315"/>
</g>
<g fill="rgb(0%, 0%, 0%)" fill-opacity="1">
<use xlink:href="#glyph-0-9" x="77.464218" y="14.670315"/>
<use xlink:href="#glyph-0-0" x="80.955567" y="14.670315"/>
<use xlink:href="#glyph-0-10" x="87.945866" y="14.670315"/>
</g>
<g fill="rgb(0%, 0%, 0%)" fill-opacity="1">
<use xlink:href="#glyph-1-0" x="18.451712" y="21.482241"/>
<use xlink:href="#glyph-1-1" x="21.303935" y="21.482241"/>
<use xlink:href="#glyph-1-2" x="24.156158" y="21.482241"/>
<use xlink:href="#glyph-1-3" x="27.776083" y="21.482241"/>
<use xlink:href="#glyph-1-4" x="29.860012" y="21.482241"/>
<use xlink:href="#glyph-1-5" x="33.863787" y="21.482241"/>
</g>
<g fill="rgb(0%, 0%, 0%)" fill-opacity="1">
<use xlink:href="#glyph-1-6" x="39.734095" y="21.482241"/>
<use xlink:href="#glyph-1-4" x="43.35402" y="21.482241"/>
</g>
<g fill="rgb(0%, 0%, 0%)" fill-opacity="1">
<use xlink:href="#glyph-1-2" x="50.3433" y="21.482241"/>
<use xlink:href="#glyph-1-7" x="53.963224" y="21.482241"/>
<use xlink:href="#glyph-1-7" x="56.047154" y="21.482241"/>
</g>
<g fill="rgb(0%, 0%, 0%)" fill-opacity="1">
<use xlink:href="#glyph-1-0" x="61.110664" y="21.482241"/>
<use xlink:href="#glyph-1-8" x="63.962888" y="21.482241"/>
<use xlink:href="#glyph-1-1" x="67.966663" y="21.482241"/>
<use xlink:href="#glyph-1-9" x="70.818886" y="21.482241"/>
<use xlink:href="#glyph-1-9" x="74.05496" y="21.482241"/>
</g>
<g fill="rgb(0%, 0%, 0%)" fill-opacity="1">
<use xlink:href="#glyph-1-5" x="80.270615" y="21.482241"/>
<use xlink:href="#glyph-1-10" x="83.161342" y="21.482241"/>
<use xlink:href="#glyph-1-11" x="87.165117" y="21.482241"/>
<use xlink:href="#glyph-1-0" x="91.168892" y="21.482241"/>
<use xlink:href="#glyph-1-2" x="94.021115" y="21.482241"/>
<use xlink:href="#glyph-1-5" x="97.641039" y="21.482241"/>
<use xlink:href="#glyph-1-12" x="100.531766" y="21.482241"/>
<use xlink:href="#glyph-1-5" x="104.343616" y="21.482241"/>
</g>
<path fill="none" stroke-width="0.59776" stroke-linecap="butt" stroke-linejoin="miter" stroke="rgb(50%, 50%, 50%)" stroke-opacity="1" stroke-miterlimit="10" d="M -134.645435 40.086964 L -134.645435 28.915772 " transform="matrix(0.99097, 0, 0, -0.99097, 196.273296, 67.732779)"/>
<path fill="none" stroke-width="0.59776" stroke-linecap="butt" stroke-linejoin="miter" stroke="rgb(50%, 50%, 50%)" stroke-opacity="1" stroke-miterlimit="10" d="M -165.261754 28.915772 L -104.033059 28.915772 " transform="matrix(0.99097, 0, 0, -0.99097, 196.273296, 67.732779)"/>
<path fill-rule="nonzero" fill="rgb(93.464661%, 96.759033%, 96.97876%)" fill-opacity="1" stroke-width="0.44832" stroke-linecap="butt" stroke-linejoin="miter" stroke="rgb(31.997681%, 46.116638%, 47.059631%)" stroke-opacity="1" stroke-miterlimit="10" d="M -154.756734 20.693081 L -175.766773 20.693081 C -176.425062 20.693081 -176.961153 20.15699 -176.961153 19.498702 L -176.961153 11.682021 C -176.961153 11.023733 -176.425062 10.487642 -175.766773 10.487642 L -154.756734 10.487642 C -154.098445 10.487642 -153.562354 11.023733 -153.562354 11.682021 L -153.562354 19.498702 C -153.562354 20.15699 -154.098445 20.693081 -154.756734 20.693081 Z M -154.756734 20.693081 " transform="matrix(0.99097, 0, 0, -0.99097, 196.273296, 67.732779)"/>
<g fill="rgb(0%, 0%, 0%)" fill-opacity="1">
<use xlink:href="#glyph-1-13" x="26.115871" y="54.307121"/>
<use xlink:href="#glyph-1-14" x="30.119646" y="54.307121"/>
<use xlink:href="#glyph-1-15" x="35.275566" y="54.307121"/>
</g>
<path fill="none" stroke-width="0.59776" stroke-linecap="butt" stroke-linejoin="miter" stroke="rgb(50%, 50%, 50%)" stroke-opacity="1" stroke-miterlimit="10" d="M -165.261754 28.915772 L -165.261754 23.137026 " transform="matrix(0.99097, 0, 0, -0.99097, 196.273296, 67.732779)"/>
<path fill-rule="nonzero" fill="rgb(50%, 50%, 50%)" fill-opacity="1" stroke-width="0.59776" stroke-linecap="butt" stroke-linejoin="miter" stroke="rgb(50%, 50%, 50%)" stroke-opacity="1" stroke-miterlimit="10" d="M 3.13363 0.000176476 L 0.965615 0.824022 L 1.690915 0.000176476 L 0.965615 -0.823669 Z M 3.13363 0.000176476 " transform="matrix(0, 0.99097, 0.99097, 0, 32.503731, 43.27748)"/>
<path fill-rule="nonzero" fill="rgb(93.464661%, 96.759033%, 96.97876%)" fill-opacity="1" stroke-width="0.44832" stroke-linecap="butt" stroke-linejoin="miter" stroke="rgb(31.997681%, 46.116638%, 47.059631%)" stroke-opacity="1" stroke-miterlimit="10" d="M -124.144357 20.693081 L -145.150455 20.693081 C -145.812685 20.693081 -146.344834 20.15699 -146.344834 19.498702 L -146.344834 11.682021 C -146.344834 11.023733 -145.812685 10.487642 -145.150455 10.487642 L -124.144357 10.487642 C -123.482127 10.487642 -122.949978 11.023733 -122.949978 11.682021 L -122.949978 19.498702 C -122.949978 20.15699 -123.482127 20.693081 -124.144357 20.693081 Z M -124.144357 20.693081 " transform="matrix(0.99097, 0, 0, -0.99097, 196.273296, 67.732779)"/>
<g fill="rgb(0%, 0%, 0%)" fill-opacity="1">
<use xlink:href="#glyph-1-13" x="56.453418" y="54.307121"/>
<use xlink:href="#glyph-1-14" x="60.457193" y="54.307121"/>
<use xlink:href="#glyph-1-16" x="65.613112" y="54.307121"/>
</g>
<path fill="none" stroke-width="0.59776" stroke-linecap="butt" stroke-linejoin="miter" stroke="rgb(50%, 50%, 50%)" stroke-opacity="1" stroke-miterlimit="10" d="M -134.645435 28.915772 L -134.645435 23.137026 " transform="matrix(0.99097, 0, 0, -0.99097, 196.273296, 67.732779)"/>
<path fill-rule="nonzero" fill="rgb(50%, 50%, 50%)" fill-opacity="1" stroke-width="0.59776" stroke-linecap="butt" stroke-linejoin="miter" stroke="rgb(50%, 50%, 50%)" stroke-opacity="1" stroke-miterlimit="10" d="M 3.13363 0.00190486 L 0.965615 0.821809 L 1.690915 0.00190486 L 0.965615 -0.821941 Z M 3.13363 0.00190486 " transform="matrix(0, 0.99097, 0.99097, 0, 62.841862, 43.27748)"/>
<path fill-rule="nonzero" fill="rgb(93.464661%, 96.759033%, 96.97876%)" fill-opacity="1" stroke-width="0.44832" stroke-linecap="butt" stroke-linejoin="miter" stroke="rgb(31.997681%, 46.116638%, 47.059631%)" stroke-opacity="1" stroke-miterlimit="10" d="M -93.528039 20.693081 L -114.538078 20.693081 C -115.196367 20.693081 -115.732458 20.15699 -115.732458 19.498702 L -115.732458 11.682021 C -115.732458 11.023733 -115.196367 10.487642 -114.538078 10.487642 L -93.528039 10.487642 C -92.869751 10.487642 -92.333659 11.023733 -92.333659 11.682021 L -92.333659 19.498702 C -92.333659 20.15699 -92.869751 20.693081 -93.528039 20.693081 Z M -93.528039 20.693081 " transform="matrix(0.99097, 0, 0, -0.99097, 196.273296, 67.732779)"/>
<g fill="rgb(0%, 0%, 0%)" fill-opacity="1">
<use xlink:href="#glyph-1-13" x="86.790964" y="54.307121"/>
<use xlink:href="#glyph-1-14" x="90.794739" y="54.307121"/>
<use xlink:href="#glyph-1-17" x="95.950658" y="54.307121"/>
</g>
<path fill="none" stroke-width="0.59776" stroke-linecap="butt" stroke-linejoin="miter" stroke="rgb(50%, 50%, 50%)" stroke-opacity="1" stroke-miterlimit="10" d="M -104.033059 28.915772 L -104.033059 23.137026 " transform="matrix(0.99097, 0, 0, -0.99097, 196.273296, 67.732779)"/>
<path fill-rule="nonzero" fill="rgb(50%, 50%, 50%)" fill-opacity="1" stroke-width="0.59776" stroke-linecap="butt" stroke-linejoin="miter" stroke="rgb(50%, 50%, 50%)" stroke-opacity="1" stroke-miterlimit="10" d="M 3.13363 -0.000328605 L 0.965615 0.823517 L 1.690915 -0.000328605 L 0.965615 -0.824174 Z M 3.13363 -0.000328605 " transform="matrix(0, 0.99097, 0.99097, 0, 93.180013, 43.27748)"/>
<path fill-rule="nonzero" fill="rgb(90.705872%, 93.763733%, 87.765503%)" fill-opacity="1" stroke-width="0.89664" stroke-linecap="butt" stroke-linejoin="miter" stroke="rgb(51.763916%, 59.411621%, 44.410706%)" stroke-opacity="1" stroke-miterlimit="10" d="M 55.564405 64.91271 L -55.564119 64.91271 C -57.215753 64.91271 -58.552039 63.576424 -58.552039 61.924791 L -58.552039 43.524253 C -58.552039 41.87262 -57.215753 40.536334 -55.564119 40.536334 L 55.564405 40.536334 C 57.216038 40.536334 58.552324 41.87262 58.552324 43.524253 L 58.552324 61.924791 C 58.552324 63.576424 57.216038 64.91271 55.564405 64.91271 Z M 55.564405 64.91271 " transform="matrix(0.99097, 0, 0, -0.99097, 196.273296, 67.732779)"/>
<g fill="rgb(0%, 0%, 0%)" fill-opacity="1">
<use xlink:href="#glyph-0-11" x="170.230612" y="14.670315"/>
<use xlink:href="#glyph-0-12" x="175.194658" y="14.670315"/>
</g>
<g fill="rgb(0%, 0%, 0%)" fill-opacity="1">
<use xlink:href="#glyph-0-1" x="180.400582" y="14.670315"/>
<use xlink:href="#glyph-0-13" x="184.494554" y="14.670315"/>
<use xlink:href="#glyph-0-6" x="188.476571" y="14.670315"/>
<use xlink:href="#glyph-0-4" x="190.985892" y="14.670315"/>
<use xlink:href="#glyph-0-5" x="195.336256" y="14.670315"/>
<use xlink:href="#glyph-0-6" x="197.845576" y="14.670315"/>
<use xlink:href="#glyph-0-7" x="200.354896" y="14.670315"/>
<use xlink:href="#glyph-0-8" x="203.895312" y="14.670315"/>
</g>
<g fill="rgb(0%, 0%, 0%)" fill-opacity="1">
<use xlink:href="#glyph-0-9" x="210.372136" y="14.670315"/>
<use xlink:href="#glyph-0-11" x="213.863485" y="14.670315"/>
<use xlink:href="#glyph-0-10" x="218.82753" y="14.670315"/>
</g>
<g fill="rgb(0%, 0%, 0%)" fill-opacity="1">
<use xlink:href="#glyph-1-0" x="161.371343" y="21.482241"/>
<use xlink:href="#glyph-1-1" x="164.223567" y="21.482241"/>
<use xlink:href="#glyph-1-2" x="167.07579" y="21.482241"/>
<use xlink:href="#glyph-1-3" x="170.695714" y="21.482241"/>
<use xlink:href="#glyph-1-4" x="172.779644" y="21.482241"/>
<use xlink:href="#glyph-1-5" x="176.783419" y="21.482241"/>
</g>
<g fill="rgb(0%, 0%, 0%)" fill-opacity="1">
<use xlink:href="#glyph-1-6" x="182.653727" y="21.482241"/>
<use xlink:href="#glyph-1-4" x="186.273651" y="21.482241"/>
</g>
<g fill="rgb(0%, 0%, 0%)" fill-opacity="1">
<use xlink:href="#glyph-1-6" x="193.262931" y="21.482241"/>
<use xlink:href="#glyph-1-4" x="196.882856" y="21.482241"/>
<use xlink:href="#glyph-1-9" x="200.886631" y="21.482241"/>
</g>
<g fill="rgb(0%, 0%, 0%)" fill-opacity="1">
<use xlink:href="#glyph-1-5" x="207.102286" y="21.482241"/>
<use xlink:href="#glyph-1-10" x="209.993012" y="21.482241"/>
<use xlink:href="#glyph-1-11" x="213.996788" y="21.482241"/>
<use xlink:href="#glyph-1-0" x="218.000563" y="21.482241"/>
<use xlink:href="#glyph-1-2" x="220.852786" y="21.482241"/>
<use xlink:href="#glyph-1-5" x="224.47271" y="21.482241"/>
<use xlink:href="#glyph-1-12" x="227.363437" y="21.482241"/>
</g>
<path fill="none" stroke-width="0.59776" stroke-linecap="butt" stroke-linejoin="miter" stroke="rgb(50%, 50%, 50%)" stroke-opacity="1" stroke-miterlimit="10" d="M 0.000142728 40.086964 L 0.000142728 28.915772 " transform="matrix(0.99097, 0, 0, -0.99097, 196.273296, 67.732779)"/>
<path fill-rule="nonzero" fill="rgb(94.422913%, 96.258545%, 92.658997%)" fill-opacity="1" stroke-width="0.44832" stroke-linecap="butt" stroke-linejoin="miter" stroke="rgb(44.86084%, 51.490784%, 38.48877%)" stroke-opacity="1" stroke-miterlimit="10" d="M 40.69182 20.693081 L -40.691534 20.693081 C -41.353764 20.693081 -41.889855 20.15699 -41.889855 19.498702 L -41.889855 11.682021 C -41.889855 11.023733 -41.353764 10.487642 -40.691534 10.487642 L 40.69182 10.487642 C 41.35405 10.487642 41.890141 11.023733 41.890141 11.682021 L 41.890141 19.498702 C 41.890141 20.15699 41.35405 20.693081 40.69182 20.693081 Z M 40.69182 20.693081 " transform="matrix(0.99097, 0, 0, -0.99097, 196.273296, 67.732779)"/>
<g fill="rgb(0%, 0%, 0%)" fill-opacity="1">
<use xlink:href="#glyph-1-13" x="189.535693" y="53.613443"/>
<use xlink:href="#glyph-1-14" x="193.539468" y="53.613443"/>
</g>
<g fill="rgb(0%, 0%, 0%)" fill-opacity="1">
<use xlink:href="#glyph-2-0" x="198.695226" y="55.0008"/>
</g>
<path fill="none" stroke-width="0.59776" stroke-linecap="butt" stroke-linejoin="miter" stroke="rgb(50%, 50%, 50%)" stroke-opacity="1" stroke-miterlimit="10" d="M 0.000142728 28.915772 L 0.000142728 23.137026 " transform="matrix(0.99097, 0, 0, -0.99097, 196.273296, 67.732779)"/>
<path fill-rule="nonzero" fill="rgb(50%, 50%, 50%)" fill-opacity="1" stroke-width="0.59776" stroke-linecap="butt" stroke-linejoin="miter" stroke="rgb(50%, 50%, 50%)" stroke-opacity="1" stroke-miterlimit="10" d="M 3.13363 0.000142728 L 0.965615 0.823989 L 1.690915 0.000142728 L 0.965615 -0.823703 Z M 3.13363 0.000142728 " transform="matrix(0, 0.99097, 0.99097, 0, 196.273296, 43.27748)"/>
<path fill-rule="nonzero" fill="rgb(92.658997%, 90.313721%, 94.494629%)" fill-opacity="1" d="M 384.765625 3.40625 L 274.640625 3.40625 C 273.007812 3.40625 271.679688 4.730469 271.679688 6.367188 L 271.679688 24.601562 C 271.679688 26.238281 273.007812 27.5625 274.640625 27.5625 L 384.765625 27.5625 C 386.402344 27.5625 387.730469 26.238281 387.730469 24.601562 L 387.730469 6.367188 C 387.730469 4.730469 386.402344 3.40625 384.765625 3.40625 Z M 384.765625 3.40625 "/>
<g clip-path="url(#clip-1)">
<path fill="none" stroke-width="0.89664" stroke-linecap="butt" stroke-linejoin="miter" stroke="rgb(51.670837%, 45.176697%, 56.75354%)" stroke-opacity="1" stroke-miterlimit="10" d="M 190.209983 64.91271 L 79.081458 64.91271 C 77.433767 64.91271 76.093539 63.576424 76.093539 61.924791 L 76.093539 43.524253 C 76.093539 41.87262 77.433767 40.536334 79.081458 40.536334 L 190.209983 40.536334 C 191.861616 40.536334 193.201844 41.87262 193.201844 43.524253 L 193.201844 61.924791 C 193.201844 63.576424 191.861616 64.91271 190.209983 64.91271 Z M 190.209983 64.91271 " transform="matrix(0.99097, 0, 0, -0.99097, 196.273296, 67.732779)"/>
</g>
<g fill="rgb(0%, 0%, 0%)" fill-opacity="1">
<use xlink:href="#glyph-0-14" x="282.074425" y="14.094562"/>
<use xlink:href="#glyph-0-6" x="290.471768" y="14.094562"/>
<use xlink:href="#glyph-0-2" x="292.981089" y="14.094562"/>
<use xlink:href="#glyph-0-15" x="297.945134" y="14.094562"/>
<use xlink:href="#glyph-0-16" x="300.454454" y="14.094562"/>
<use xlink:href="#glyph-0-17" x="303.454443" y="14.094562"/>
<use xlink:href="#glyph-0-5" x="309.891185" y="14.094562"/>
<use xlink:href="#glyph-0-4" x="312.400505" y="14.094562"/>
<use xlink:href="#glyph-0-7" x="316.750869" y="14.094562"/>
<use xlink:href="#glyph-0-7" x="320.291285" y="14.094562"/>
</g>
<g fill="rgb(0%, 0%, 0%)" fill-opacity="1">
<use xlink:href="#glyph-0-11" x="326.810265" y="14.094562"/>
<use xlink:href="#glyph-0-12" x="331.774311" y="14.094562"/>
</g>
<g fill="rgb(0%, 0%, 0%)" fill-opacity="1">
<use xlink:href="#glyph-0-1" x="336.987146" y="14.094562"/>
<use xlink:href="#glyph-0-13" x="341.081118" y="14.094562"/>
<use xlink:href="#glyph-0-15" x="345.063135" y="14.094562"/>
</g>
<g fill="rgb(0%, 0%, 0%)" fill-opacity="1">
<use xlink:href="#glyph-0-9" x="350.551021" y="14.094562"/>
<use xlink:href="#glyph-0-14" x="354.042369" y="14.094562"/>
<use xlink:href="#glyph-0-17" x="362.439712" y="14.094562"/>
<use xlink:href="#glyph-0-11" x="368.876454" y="14.094562"/>
<use xlink:href="#glyph-0-10" x="373.840499" y="14.094562"/>
</g>
<g fill="rgb(0%, 0%, 0%)" fill-opacity="1">
<use xlink:href="#glyph-1-6" x="281.563085" y="20.906488"/>
<use xlink:href="#glyph-1-4" x="285.183009" y="20.906488"/>
<use xlink:href="#glyph-1-9" x="289.186785" y="20.906488"/>
</g>
<g fill="rgb(0%, 0%, 0%)" fill-opacity="1">
<use xlink:href="#glyph-1-5" x="295.402439" y="20.906488"/>
<use xlink:href="#glyph-1-10" x="298.293166" y="20.906488"/>
<use xlink:href="#glyph-1-11" x="302.296941" y="20.906488"/>
<use xlink:href="#glyph-1-0" x="306.300716" y="20.906488"/>
<use xlink:href="#glyph-1-2" x="309.15294" y="20.906488"/>
<use xlink:href="#glyph-1-5" x="312.772864" y="20.906488"/>
<use xlink:href="#glyph-1-12" x="315.663591" y="20.906488"/>
</g>
<g fill="rgb(0%, 0%, 0%)" fill-opacity="1">
<use xlink:href="#glyph-3-0" x="322.460945" y="20.906488"/>
</g>
<g fill="rgb(0%, 0%, 0%)" fill-opacity="1">
<use xlink:href="#glyph-1-1" x="327.689133" y="20.906488"/>
<use xlink:href="#glyph-1-2" x="330.541356" y="20.906488"/>
<use xlink:href="#glyph-1-1" x="334.16128" y="20.906488"/>
<use xlink:href="#glyph-1-9" x="337.013504" y="20.906488"/>
</g>
<g fill="rgb(0%, 0%, 0%)" fill-opacity="1">
<use xlink:href="#glyph-1-7" x="343.229159" y="20.906488"/>
<use xlink:href="#glyph-1-2" x="345.313088" y="20.906488"/>
<use xlink:href="#glyph-1-11" x="348.933013" y="20.906488"/>
</g>
<g fill="rgb(0%, 0%, 0%)" fill-opacity="1">
<use xlink:href="#glyph-1-9" x="353.132267" y="20.906488"/>
<use xlink:href="#glyph-1-7" x="356.368341" y="20.906488"/>
<use xlink:href="#glyph-1-5" x="358.452271" y="20.906488"/>
</g>
<g fill="rgb(0%, 0%, 0%)" fill-opacity="1">
<use xlink:href="#glyph-1-6" x="364.322579" y="20.906488"/>
<use xlink:href="#glyph-1-4" x="367.942503" y="20.906488"/>
<use xlink:href="#glyph-1-7" x="371.946278" y="20.906488"/>
<use xlink:href="#glyph-1-18" x="374.030208" y="20.906488"/>
</g>
<path fill="none" stroke-width="0.59776" stroke-linecap="butt" stroke-linejoin="miter" stroke="rgb(50%, 50%, 50%)" stroke-opacity="1" stroke-miterlimit="10" d="M 134.645721 40.086964 L 134.645721 28.915772 " transform="matrix(0.99097, 0, 0, -0.99097, 196.273296, 67.732779)"/>
<path fill="none" stroke-width="0.59776" stroke-linecap="butt" stroke-linejoin="miter" stroke="rgb(50%, 50%, 50%)" stroke-opacity="1" stroke-miterlimit="10" d="M 134.645721 28.915772 L 134.645721 23.988464 " transform="matrix(0.99097, 0, 0, -0.99097, 196.273296, 67.732779)"/>
<path fill-rule="nonzero" fill="rgb(50%, 50%, 50%)" fill-opacity="1" stroke-width="0.59776" stroke-linecap="butt" stroke-linejoin="miter" stroke="rgb(50%, 50%, 50%)" stroke-opacity="1" stroke-miterlimit="10" d="M 3.132991 -0.0016194 L 0.964976 0.822226 L 1.690276 -0.0016194 L 0.964976 -0.821523 Z M 3.132991 -0.0016194 " transform="matrix(0, 0.99097, 0.99097, 0, 329.70473, 42.434363)"/>
<path fill-rule="nonzero" fill="rgb(91.999817%, 91.999817%, 91.999817%)" fill-opacity="1" stroke-width="0.44832" stroke-linecap="butt" stroke-linejoin="miter" stroke="rgb(57.998657%, 57.998657%, 57.998657%)" stroke-opacity="1" stroke-miterlimit="10" d="M 83.84715 10.428514 L 113.61203 10.428514 L 113.61203 21.201579 L 83.84715 21.201579 Z M 83.84715 10.428514 " transform="matrix(0.99097, 0, 0, -0.99097, 196.273296, 67.732779)"/>
<path fill="none" stroke-width="0.3985" stroke-linecap="butt" stroke-linejoin="miter" stroke="rgb(67.999268%, 67.999268%, 67.999268%)" stroke-opacity="1" stroke-miterlimit="10" d="M 83.622465 10.203829 L 113.387345 20.976894 " transform="matrix(0.99097, 0, 0, -0.99097, 196.273296, 67.732779)"/>
<path fill="none" stroke-width="0.3985" stroke-linecap="butt" stroke-linejoin="miter" stroke="rgb(67.999268%, 67.999268%, 67.999268%)" stroke-opacity="1" stroke-miterlimit="10" d="M 83.622465 20.976894 L 113.387345 10.203829 " transform="matrix(0.99097, 0, 0, -0.99097, 196.273296, 67.732779)"/>
<path fill-rule="nonzero" fill="rgb(91.999817%, 91.999817%, 91.999817%)" fill-opacity="1" stroke-width="0.44832" stroke-linecap="butt" stroke-linejoin="miter" stroke="rgb(57.998657%, 57.998657%, 57.998657%)" stroke-opacity="1" stroke-miterlimit="10" d="M 113.61203 10.428514 L 136.28947 10.428514 L 136.28947 21.201579 L 113.61203 21.201579 Z M 113.61203 10.428514 " transform="matrix(0.99097, 0, 0, -0.99097, 196.273296, 67.732779)"/>
<path fill="none" stroke-width="0.3985" stroke-linecap="butt" stroke-linejoin="miter" stroke="rgb(67.999268%, 67.999268%, 67.999268%)" stroke-opacity="1" stroke-miterlimit="10" d="M 113.387345 10.203829 L 136.064785 20.976894 " transform="matrix(0.99097, 0, 0, -0.99097, 196.273296, 67.732779)"/>
<path fill="none" stroke-width="0.3985" stroke-linecap="butt" stroke-linejoin="miter" stroke="rgb(67.999268%, 67.999268%, 67.999268%)" stroke-opacity="1" stroke-miterlimit="10" d="M 113.387345 20.976894 L 136.064785 10.203829 " transform="matrix(0.99097, 0, 0, -0.99097, 196.273296, 67.732779)"/>
<path fill-rule="nonzero" fill="rgb(95.481873%, 94.039917%, 96.612549%)" fill-opacity="1" stroke-width="0.44832" stroke-linecap="butt" stroke-linejoin="miter" stroke="rgb(43.058777%, 37.646484%, 47.294617%)" stroke-opacity="1" stroke-miterlimit="10" d="M 136.28947 10.428514 L 153.86222 10.428514 L 153.86222 21.201579 L 136.28947 21.201579 Z M 136.28947 10.428514 " transform="matrix(0.99097, 0, 0, -0.99097, 196.273296, 67.732779)"/>
<path fill-rule="nonzero" fill="rgb(95.481873%, 94.039917%, 96.612549%)" fill-opacity="1" stroke-width="0.44832" stroke-linecap="butt" stroke-linejoin="miter" stroke="rgb(43.058777%, 37.646484%, 47.294617%)" stroke-opacity="1" stroke-miterlimit="10" d="M 153.86222 10.428514 L 166.338163 10.428514 L 166.338163 21.201579 L 153.86222 21.201579 Z M 153.86222 10.428514 " transform="matrix(0.99097, 0, 0, -0.99097, 196.273296, 67.732779)"/>
<path fill-rule="nonzero" fill="rgb(95.481873%, 94.039917%, 96.612549%)" fill-opacity="1" stroke-width="0.44832" stroke-linecap="butt" stroke-linejoin="miter" stroke="rgb(43.058777%, 37.646484%, 47.294617%)" stroke-opacity="1" stroke-miterlimit="10" d="M 166.338163 10.428514 L 176.539661 10.428514 L 176.539661 21.201579 L 166.338163 21.201579 Z M 166.338163 10.428514 " transform="matrix(0.99097, 0, 0, -0.99097, 196.273296, 67.732779)"/>
<path fill-rule="nonzero" fill="rgb(95.481873%, 94.039917%, 96.612549%)" fill-opacity="1" stroke-width="0.44832" stroke-linecap="butt" stroke-linejoin="miter" stroke="rgb(43.058777%, 37.646484%, 47.294617%)" stroke-opacity="1" stroke-miterlimit="10" d="M 176.539661 10.428514 L 181.928164 10.428514 L 181.928164 21.201579 L 176.539661 21.201579 Z M 176.539661 10.428514 " transform="matrix(0.99097, 0, 0, -0.99097, 196.273296, 67.732779)"/>
<path fill-rule="nonzero" fill="rgb(95.481873%, 94.039917%, 96.612549%)" fill-opacity="1" stroke-width="0.44832" stroke-linecap="butt" stroke-linejoin="miter" stroke="rgb(43.058777%, 37.646484%, 47.294617%)" stroke-opacity="1" stroke-miterlimit="10" d="M 181.928164 10.428514 L 185.897603 10.428514 L 185.897603 21.201579 L 181.928164 21.201579 Z M 181.928164 10.428514 " transform="matrix(0.99097, 0, 0, -0.99097, 196.273296, 67.732779)"/>
<path fill="none" stroke-width="0.49814" stroke-linecap="butt" stroke-linejoin="miter" stroke="rgb(54.998779%, 54.998779%, 54.998779%)" stroke-opacity="1" stroke-miterlimit="10" d="M 83.622465 8.709869 C 84.071836 7.81507 85.116425 7.215909 86.610384 7.215909 L 106.855706 7.215909 C 108.349666 7.215909 109.394255 6.616749 109.843625 5.72195 C 110.292996 6.616749 111.337585 7.215909 112.831544 7.215909 L 133.076866 7.215909 C 134.570826 7.215909 135.615415 7.81507 136.064785 8.709869 " transform="matrix(0.99097, 0, 0, -0.99097, 196.273296, 67.732779)"/>
<g fill="rgb(44.999695%, 44.999695%, 44.999695%)" fill-opacity="1">
<use xlink:href="#glyph-4-0" x="290.284609" y="69.713727"/>
<use xlink:href="#glyph-4-1" x="294.836912" y="69.713727"/>
<use xlink:href="#glyph-4-2" x="298.219891" y="69.713727"/>
<use xlink:href="#glyph-4-3" x="302.327922" y="69.713727"/>
<use xlink:href="#glyph-4-3" x="306.880224" y="69.713727"/>
</g>
<g fill="rgb(44.999695%, 44.999695%, 44.999695%)" fill-opacity="1">
<use xlink:href="#glyph-4-4" x="311.651701" y="69.713727"/>
</g>
<g fill="rgb(44.999695%, 44.999695%, 44.999695%)" fill-opacity="1">
<use xlink:href="#glyph-4-0" x="315.4132" y="69.713727"/>
</g>
<g fill="rgb(44.999695%, 44.999695%, 44.999695%)" fill-opacity="1">
<use xlink:href="#glyph-1-19" x="283.23386" y="76.62475"/>
<use xlink:href="#glyph-1-6" x="289.15748" y="76.62475"/>
<use xlink:href="#glyph-1-5" x="292.777405" y="76.62475"/>
<use xlink:href="#glyph-1-0" x="295.668132" y="76.62475"/>
</g>
<g fill="rgb(44.999695%, 44.999695%, 44.999695%)" fill-opacity="1">
<use xlink:href="#glyph-1-20" x="300.931268" y="76.62475"/>
<use xlink:href="#glyph-1-1" x="303.207716" y="76.62475"/>
<use xlink:href="#glyph-1-9" x="306.059939" y="76.62475"/>
<use xlink:href="#glyph-1-21" x="309.296013" y="76.62475"/>
<use xlink:href="#glyph-1-10" x="313.107863" y="76.62475"/>
<use xlink:href="#glyph-1-9" x="317.111638" y="76.62475"/>
<use xlink:href="#glyph-1-4" x="320.347712" y="76.62475"/>
</g>
<g fill="rgb(44.999695%, 44.999695%, 44.999695%)" fill-opacity="1">
<use xlink:href="#glyph-1-0" x="324.161931" y="76.62475"/>
</g>
<g fill="rgb(44.999695%, 44.999695%, 44.999695%)" fill-opacity="1">
<use xlink:href="#glyph-1-7" x="286.40199" y="83.535773"/>
<use xlink:href="#glyph-1-2" x="288.48592" y="83.535773"/>
<use xlink:href="#glyph-1-11" x="292.105844" y="83.535773"/>
</g>
<g fill="rgb(44.999695%, 44.999695%, 44.999695%)" fill-opacity="1">
<use xlink:href="#glyph-1-9" x="296.299175" y="83.535773"/>
<use xlink:href="#glyph-1-7" x="299.535249" y="83.535773"/>
<use xlink:href="#glyph-1-5" x="301.619179" y="83.535773"/>
<use xlink:href="#glyph-1-22" x="304.509905" y="83.535773"/>
</g>
<g fill="rgb(44.999695%, 44.999695%, 44.999695%)" fill-opacity="1">
<use xlink:href="#glyph-1-10" x="309.010672" y="83.535773"/>
<use xlink:href="#glyph-1-4" x="313.014447" y="83.535773"/>
</g>
<g fill="rgb(44.999695%, 44.999695%, 44.999695%)" fill-opacity="1">
<use xlink:href="#glyph-1-0" x="316.822743" y="83.535773"/>
<use xlink:href="#glyph-1-3" x="319.674966" y="83.535773"/>
<use xlink:href="#glyph-1-7" x="321.758896" y="83.535773"/>
</g>
<g fill="rgb(44.999695%, 44.999695%, 44.999695%)" fill-opacity="1">
<use xlink:href="#glyph-5-0" x="293.124728" y="90.446795"/>
</g>
<g fill="rgb(44.999695%, 44.999695%, 44.999695%)" fill-opacity="1">
<use xlink:href="#glyph-1-23" x="302.697299" y="90.446795"/>
<use xlink:href="#glyph-1-24" x="306.317224" y="90.446795"/>
</g>
<g fill="rgb(44.999695%, 44.999695%, 44.999695%)" fill-opacity="1">
<use xlink:href="#glyph-1-25" x="311.198879" y="90.446795"/>
</g>
<path fill="none" stroke-width="0.49814" stroke-linecap="butt" stroke-linejoin="miter" stroke="rgb(39.46991%, 34.510803%, 43.351746%)" stroke-opacity="1" stroke-miterlimit="10" d="M 136.064785 8.709869 C 136.514156 7.81507 137.558745 7.215909 139.052704 7.215909 L 157.878961 7.215909 C 159.372921 7.215909 160.421452 6.616749 160.866881 5.72195 C 161.316251 6.616749 162.36084 7.215909 163.858742 7.215909 L 182.681057 7.215909 C 184.178958 7.215909 185.223547 7.81507 185.672918 8.709869 " transform="matrix(0.99097, 0, 0, -0.99097, 196.273296, 67.732779)"/>
<g fill="rgb(32.293701%, 28.234863%, 35.469055%)" fill-opacity="1">
<use xlink:href="#glyph-4-5" x="347.868867" y="69.713727"/>
</g>
<g fill="rgb(32.293701%, 28.234863%, 35.469055%)" fill-opacity="1">
<use xlink:href="#glyph-4-4" x="351.973936" y="69.713727"/>
</g>
<g fill="rgb(32.293701%, 28.234863%, 35.469055%)" fill-opacity="1">
<use xlink:href="#glyph-4-3" x="355.735435" y="69.713727"/>
<use xlink:href="#glyph-4-6" x="360.287738" y="69.713727"/>
</g>
<g fill="rgb(32.293701%, 28.234863%, 35.469055%)" fill-opacity="1">
<use xlink:href="#glyph-1-26" x="341.617831" y="76.62475"/>
<use xlink:href="#glyph-1-8" x="346.77375" y="76.62475"/>
<use xlink:href="#glyph-1-2" x="350.777525" y="76.62475"/>
<use xlink:href="#glyph-1-0" x="354.397449" y="76.62475"/>
</g>
<g fill="rgb(32.293701%, 28.234863%, 35.469055%)" fill-opacity="1">
<use xlink:href="#glyph-1-0" x="359.660586" y="76.62475"/>
<use xlink:href="#glyph-1-8" x="362.512809" y="76.62475"/>
<use xlink:href="#glyph-1-9" x="366.516584" y="76.62475"/>
</g>
<g fill="rgb(32.293701%, 28.234863%, 35.469055%)" fill-opacity="1">
<use xlink:href="#glyph-1-27" x="347.875804" y="83.535773"/>
<use xlink:href="#glyph-1-28" x="354.336697" y="83.535773"/>
<use xlink:href="#glyph-1-13" x="359.492616" y="83.535773"/>
</g>
<g fill="rgb(32.293701%, 28.234863%, 35.469055%)" fill-opacity="1">
<use xlink:href="#glyph-1-0" x="341.516752" y="90.446795"/>
<use xlink:href="#glyph-1-1" x="344.368975" y="90.446795"/>
<use xlink:href="#glyph-1-2" x="347.221198" y="90.446795"/>
<use xlink:href="#glyph-1-3" x="350.841123" y="90.446795"/>
<use xlink:href="#glyph-1-4" x="352.925052" y="90.446795"/>
<use xlink:href="#glyph-1-5" x="356.928827" y="90.446795"/>
</g>
<g fill="rgb(32.293701%, 28.234863%, 35.469055%)" fill-opacity="1">
<use xlink:href="#glyph-1-6" x="362.230468" y="90.446795"/>
<use xlink:href="#glyph-1-4" x="365.850392" y="90.446795"/>
</g>
</svg>
